<?xml version="1.0" standalone="no"?>
<svg version="1.1" id="Layer_1" xmlns="http://www.w3.org/2000/svg" xmlns:xlink="http://www.w3.org/1999/xlink" x="0px" y="0px" width="595.28px" height="595.28px" viewBox="0 0 595.28 595.28" enable-background="new 0 0 595.28 595.28" xml:space="preserve">
<path id="color_x5F_2" fill="#b8e986" d="M289.67,374.688c-2.106,0.606-4.257,1.069-5.95,1.069c-1.819,0-4.569-0.268-7.662-0.797
	C280.596,375.279,285.143,375.175,289.67,374.688z M260.545,355.127l-0.044-0.02c-0.066,3.139-1.269,6.061-1.582,9.184
	c-0.566,5.651,5.064,7.026,9.607,7.883c9.479,1.786,18.766,1.808,28.129,0.035c0.251-0.104,0.474-0.197,0.64-0.268
	c-6.023-0.703-12.094-3.148-17.379-5.652C273.147,363.082,266.682,359.343,260.545,355.127z M277.304,362.625
	c4.483,2.489,9.604,5.042,14.739,6.594L277.304,362.625z M313.118,282.801c-5.591-3.153-12.555-4.058-17.651-7.836
	c-0.301-0.074-0.554-0.143-0.747-0.207c-0.486-0.162-0.971-0.801-1.444-1.75c-0.55-0.592-1.075-1.222-1.546-1.936
	c-0.27-0.408-0.18-0.801,0.091-1.111c-0.234-0.549-0.447-1.107-0.641-1.656c-3.292,1.976-7.771,2.51-11.724,1.886
	c-3.851,6.558-11.461,7.886-18.276,10.313c-5.874,2.093-9.892,5.809-11.789,11.846c-1.445,4.601-2.367,9.295-4.611,13.605
	c-0.067,0.129-0.165,0.239-0.277,0.338c2.191,2.31,4.776,3.809,7.835,4.58c0.84-5.055,1.477-10.137,2.765-15.105
	c0.26-1.003,3.182-1.439,2.9-0.354c-1.064,4.103-1.682,8.281-2.337,12.457c0.21,0.105,0.346,0.277,0.335,0.538
	c-0.281,6.933,1.922,13.619,3.99,20.169c3.138,2.5,9.086,7.184,15.002,11.555c2.712,1.796,5.432,3.576,8.16,5.321
	c3.493,2.234,7.158,4.517,11.101,5.875c2.138,0.737,5.759,1.974,6.602-1.13c0.469-1.728,0.664-3.507,0.711-5.294
	c0.169-6.44-1.48-13.675,0.046-19.989c-2.951-1.748-2.971-7.188-2.999-10.037c-0.042-4.479,0.429-8.927,0.489-13.4
	c0.014-1.034,2.908-1.528,2.897-0.775c-0.083,6.135-1.385,12.643,0,18.703c0.916,4.006,3.125,5.45,7.303,5.295
	c3.78-0.142,8.625-0.708,11.604-3.283c0.191-0.165,0.593-0.295,1.024-0.367c0.093-4.287,0.525-9.594,0.478-14.941
	c-0.675-5.931-1.665-12.217-3.077-16.62C317.935,286.721,315.945,284.396,313.118,282.801z M321.329,323.1l0.767-0.109
	c0-0.077,0.001-0.153,0.002-0.23c-0.026-0.034-0.052-0.068-0.073-0.107C321.8,322.806,321.568,322.954,321.329,323.1z
	 M252.669,312.891c-0.055-0.008-0.106-0.021-0.16-0.029l1.001,2.671c-0.13-0.872-0.236-1.749-0.309-2.629
	C253,312.914,252.813,312.91,252.669,312.891z M304.138,326.274l1.086-0.218c-0.353-0.062-0.701-0.129-1.039-0.211
	C304.165,325.987,304.156,326.132,304.138,326.274z M81.72,186.104c38.542,0,77.083,0,115.624,0c0.155,0,0.273,0.011,0.376,0.025
	v-0.371h-116V186.104z M81.802,187.387c0,5.791,0,11.58,0,17.371h115.596c0-5.875,0-11.75,0-17.625c0-0.061,0.012-0.118,0.031-0.175
	c-0.435,0.235-0.981,0.429-1.31,0.429C158.014,187.387,119.907,187.387,81.802,187.387z M45.804,334.379c0,5.92,0,11.84,0,17.761
	c38.306,0,76.611,0,114.916,0v-17.881c-0.226,0.074-0.438,0.12-0.598,0.12C122.016,334.379,83.909,334.379,45.804,334.379z
	 M530.603,341.879c-38.106,0-76.211,0-114.318,0c0,5.92,0,11.84,0,17.761c38.145,0,76.29,0,114.435,0v-17.771
	C530.68,341.873,530.639,341.879,530.603,341.879z M513.72,172.758h-116v1.272c0.139,0.011,0.258,0.034,0.352,0.074
	c38.549,0,77.098,0,115.648,0V172.758z M513.72,175.057c-0.395,0.189-0.835,0.331-1.116,0.331c-38.106,0-76.212,0-114.318,0
	c0,5.457,0,10.913,0,16.37H513.72V175.057z"></path>
<path id="color_x5F_1" d="M80.345,274.142c38.591,0,77.183,0,115.774,0c0.32,0,0.849-0.183,1.278-0.411c0,0.053,0,0.105,0,0.158
	c0,0.711,2.897,0.219,2.897-0.777c0-11.419,0-22.838,0-34.257c3.978,0,7.957,0,11.935,0c0.055,0,0.105-0.009,0.158-0.013
	c0,15.683,0,31.367,0,47.05c0,1.36,2.915,0.806,2.915-0.299c0-15.999,0-31.999,0-47.998c0-0.815-1.047-0.939-1.886-0.673
	c-0.207-0.173-0.517-0.288-0.957-0.288c-4.055,0-8.11,0-12.165,0c0-16.759,0-33.518,0-50.276c0-0.486-1.351-0.41-2.208,0.003
	c0.006-0.108-0.101-0.192-0.368-0.231c-0.104-0.015-0.222-0.025-0.376-0.025c-38.541,0-77.082,0-115.624,0c-0.044,0-0.089,0-0.133,0
	c-0.666-0.279-2.683,0.197-2.683,1.029c0,28.919,0,57.837,0,86.756C78.904,274.242,79.624,274.298,80.345,274.142z M183.731,238.854
	c4.556,0,9.111,0,13.667,0c0,11.335,0,22.671,0,34.007c-0.02-0.001-0.034-0.003-0.055-0.003c-38.514,0-77.027,0-115.542,0
	c0-22.143,0-44.285,0-66.428c38.105,0,76.212,0,114.318,0c0.32,0,0.849-0.183,1.278-0.411c0,10.205,0,20.41,0,30.614
	c-4.479,0-8.958,0-13.436,0C182.27,236.634,181.77,238.854,183.731,238.854z M197.429,186.958c-0.02,0.057-0.031,0.114-0.031,0.175
	c0,5.875,0,11.75,0,17.625c0,0.131,0,0.262,0,0.393c-0.02-0.001-0.034-0.003-0.055-0.003c-38.514,0-77.027,0-115.542,0
	c0-0.13,0-0.26,0-0.39c0-5.791,0-11.58,0-17.371c38.105,0,76.212,0,114.318,0C196.448,187.387,196.994,187.193,197.429,186.958z
	 M532.571,340.853c0.008-0.149-0.19-0.257-0.744-0.257c-38.585,0-77.171,0-115.756,0c-0.666-0.279-2.683,0.197-2.683,1.029
	c0,9.848,0,19.696,0,29.544c-8.576,0-17.152,0-25.728,0c-0.263,0-0.924,0.224-1.468,0.477c0-9.327,0-18.655,0-27.982
	c0-1.584-2.944-1.195-2.944,0.189c0,9.333,0,18.667,0,28c0,1.277,1.914,1.271,2.655,0.494c9.162,0,18.324,0,27.485,0
	c0,18.678,0,37.356,0,56.034c0,0.354,0.719,0.409,1.44,0.253c38.592,0,77.183,0,115.775,0c0.32,0,0.848-0.183,1.278-0.411
	c0,0.053,0,0.105,0,0.158c0,0.711,2.897,0.219,2.897-0.777c0-28.918,0-57.836,0-86.754
	C534.779,340.363,533.428,340.439,532.571,340.853z M531.913,341.45c-0.021,0.057-0.032,0.114-0.032,0.175
	c0,6.006,0,12.012,0,18.018c-0.02-0.001-0.034-0.003-0.055-0.003c-0.369,0-0.738,0-1.107,0c-38.145,0-76.29,0-114.435,0
	c0-5.921,0-11.841,0-17.761c38.106,0,76.212,0,114.318,0c0.036,0,0.077-0.006,0.117-0.01
	C531.051,341.834,531.524,341.66,531.913,341.45z M531.827,427.351c-38.513,0-77.028,0-115.542,0c0-22.143,0-44.285,0-66.428
	c38.106,0,76.212,0,114.318,0c0.32,0,0.848-0.183,1.278-0.411c0,22.281,0,44.561,0,66.842
	C531.861,427.353,531.848,427.351,531.827,427.351z M488.227,204.222c-0.287-0.452-1.136-0.47-1.829-0.233
	c-19.262,0-38.522,0-57.784,0c-0.001,0-0.003,0-0.004,0c-0.064,0-0.128,0-0.192,0c-0.013,0-0.029,0.003-0.043,0.004
	c-0.009,0-0.02,0.002-0.029,0.002c-0.048,0.004-0.098,0.01-0.147,0.016c-0.823,0.096-1.811,0.518-1.811,1.123
	c0,14.409,0,28.817,0,43.227c0,0.135,0.093,0.228,0.239,0.287c0.19,0.253,0.541,0.432,1.093,0.432c19.329,0,38.657,0,57.985,0
	c0.314,0,0.586-0.076,0.81-0.201c0.825-0.013,1.814-0.462,1.814-1.069c0-13.835,0-27.669,0-41.504
	c0.688-0.571,1.256-1.184,1.437-1.792C489.891,204.098,489.037,204.045,488.227,204.222z M485.423,246.863
	c-18.712,0-37.424,0-56.137,0c0-13.787,0-27.574,0-41.361c18.652,0,37.304,0,55.956,0c0.057,0,0.119-0.006,0.182-0.016
	c0,0.396,0,0.794,0,1.19c-1.042,0.808-2.347,1.545-2.984,2.021c-2.928,2.188-5.924,4.286-8.919,6.382
	c-5.577,3.902-11.204,7.733-16.85,11.535c-0.003,0.002-0.005,0.004-0.008,0.006c-0.871-0.348-1.694-0.971-2.426-1.467
	c-7.941-5.374-14.791-12.699-21.541-19.424c-0.585-0.583-3.272,0.479-2.719,1.029c7.059,7.033,14.336,15.144,22.968,20.342
	c1.311,0.789,3.978,1.838,5.198,0.204c-0.177,0.236,0.105-0.037,0.778-0.49c1.267-0.853,2.531-1.708,3.795-2.564
	c3.814-2.586,7.616-5.19,11.401-7.819c3.759-2.609,7.505-5.242,11.171-7.981c0.042-0.031,0.09-0.064,0.135-0.098
	C485.423,221.189,485.423,234.025,485.423,246.863z M456.141,226.957C455.28,227.488,455.515,227.178,456.141,226.957
	L456.141,226.957z M169.286,217.461c-18.876,0-37.753,0-56.629,0c-0.63-0.832-2.758-0.357-2.758,0.765c0,14.409,0,28.817,0,43.226
	c0,0.133,0.029,0.246,0.069,0.352c-0.011,0.191,0.097,0.35,0.37,0.433c0.401,0.237,1.007,0.241,1.522,0.065
	c18.989,0,37.977,0,56.965,0c0.159,0,0.325-0.03,0.491-0.084c0.794,0.592,2.564,0.127,2.564-0.964c0-14.408,0-28.817,0-43.226
	C171.879,216.771,170.065,216.738,169.286,217.461z M112.835,260.387c0-13.871,0-27.741,0-41.611c18.636,0,37.273,0,55.909,0
	c0.057,0,0.121-0.006,0.189-0.018c0,13.877,0,27.752,0,41.629C150.234,260.387,131.535,260.387,112.835,260.387z M137.238,232.215
	c-0.876,0-2.492,0.397-3.472,3.058c-0.503,1.367-0.78,3.174-0.78,5.086c0,3.758,1.114,8.145,4.252,8.145
	c3.256,0,13.982-2.414,13.982-7.745C151.22,235.571,140.833,232.215,137.238,232.215z M137.244,245.503
	c-0.364-0.153-1.259-1.883-1.259-5.145c0-3.279,0.905-5.01,1.252-5.144c3.686,0,10.982,3.368,10.982,5.543
	C148.22,242.759,141.222,245.5,137.244,245.503z M85.052,361.926c-9.833,0-17.833,8-17.833,17.833c0,4.517,1.702,8.634,4.479,11.779
	l-4.513,4.103c-0.873-0.855-2.219-1.918-3.558-1.918c-0.532,0-1.017,0.169-1.4,0.489l-8.692,7.261
	c-0.473,0.395-1.167,1.336-0.498,3.206c0.327,0.913,0.94,1.936,1.728,2.878c0.546,0.654,2.474,2.787,4.368,2.787
	c0.534,0,1.019-0.169,1.401-0.489l8.694-7.261c0.472-0.395,1.165-1.337,0.497-3.206c-0.159-0.444-0.388-0.916-0.671-1.391
	l4.81-4.372c3.063,2.477,6.954,3.967,11.189,3.967c3.416,0,6.598-0.982,9.313-2.654l58.52-0.695v-23.649H100.32
	C97.197,365.41,91.531,361.926,85.052,361.926z M58.954,407.265c-0.383-0.186-1.1-0.688-1.887-1.631
	c-0.787-0.941-1.153-1.735-1.267-2.146l8.005-6.687c0.383,0.186,1.1,0.688,1.889,1.632c0.787,0.941,1.153,1.735,1.266,2.146
	L58.954,407.265z M70.218,379.759c0-8.179,6.654-14.833,14.833-14.833c6.476,0,11.981,4.178,13.999,9.975
	c0.359,2.139,0.674,4.597,0.733,6.528c-0.833,7.395-7.119,13.163-14.732,13.163C76.873,394.592,70.218,387.938,70.218,379.759z
	 M101.869,373.593h48.016v17.685l-51.51,0.612c1.567-2.207,3.637-5.329,4.121-7.06c0.235-0.838,0.312-1.97,0.292-3.218
	c0.063-0.609,0.097-1.228,0.097-1.854c0-1.96-0.33-3.843-0.917-5.608C101.934,373.956,101.901,373.77,101.869,373.593z
	 M85.052,367.926c-6.525,0-11.833,5.309-11.833,11.833s5.309,11.833,11.833,11.833s11.833-5.309,11.833-11.833
	S91.577,367.926,85.052,367.926z M85.052,388.592c-4.871,0-8.833-3.963-8.833-8.833s3.963-8.833,8.833-8.833
	s8.833,3.963,8.833,8.833S89.922,388.592,85.052,388.592z M472.053,396.258c6.708,0,12.167-5.458,12.167-12.167
	c0-6.708-5.458-12.166-12.167-12.166s-12.167,5.458-12.167,12.166C459.886,390.8,465.344,396.258,472.053,396.258z M472.053,374.925
	c5.054,0,9.167,4.112,9.167,9.166c0,5.055-4.112,9.167-9.167,9.167s-9.167-4.112-9.167-9.167
	C462.886,379.037,466.999,374.925,472.053,374.925z M472.053,397.258c-10.526,0-19.434,7.536-21.179,17.918l-0.294,1.749h42.947
	l-0.294-1.749C491.487,404.794,482.58,397.258,472.053,397.258z M454.212,413.925c2.147-8.018,9.387-13.667,17.841-13.667
	s15.693,5.649,17.841,13.667H454.212z M503.123,389.218c3.203-1.021,5.531-4.023,5.531-7.561c0-4.375-3.56-7.934-7.935-7.934
	c-4.375,0-7.934,3.559-7.934,7.934c0,3.537,2.328,6.54,5.531,7.561c-5.555,0.988-9.994,5.349-10.959,11.091l-0.294,1.749h27.313
	l-0.294-1.749C513.117,394.566,508.678,390.205,503.123,389.218z M495.786,381.657c0-2.721,2.213-4.934,4.934-4.934
	c2.721,0,4.935,2.213,4.935,4.934s-2.214,4.935-4.935,4.935C498,386.592,495.786,384.378,495.786,381.657z M490.765,399.058
	c1.457-4.176,5.397-7.053,9.956-7.053s8.499,2.877,9.956,7.053H490.765z M457.416,400.309c-0.965-5.742-5.404-10.104-10.959-11.091
	c3.203-1.021,5.531-4.023,5.531-7.561c0-4.375-3.56-7.934-7.935-7.934c-4.375,0-7.934,3.559-7.934,7.934
	c0,3.537,2.328,6.54,5.531,7.561c-5.555,0.988-9.994,5.349-10.959,11.091l-0.294,1.749h27.313L457.416,400.309z M439.119,381.657
	c0-2.721,2.213-4.934,4.934-4.934c2.721,0,4.935,2.213,4.935,4.934s-2.214,4.935-4.935,4.935
	C441.333,386.592,439.119,384.378,439.119,381.657z M434.098,399.058c1.457-4.176,5.397-7.053,9.956-7.053s8.499,2.877,9.956,7.053
	H434.098z M344.069,282.684c6.724,0.281,13.511,0.012,20.242,0.018c0.561,0,1.993-0.259,1.993-1.075c0-19.924,0-39.848,0-59.771
	c9.475,0,18.951,0,28.426,0c0.248,0,0.466-0.052,0.659-0.133c0,13.389,0,26.778,0,40.167c0,0.355,0.72,0.41,1.443,0.254
	c38.59,0,77.182,0,115.772,0c0.32,0,0.849-0.184,1.278-0.411c0,0.053,0,0.104,0,0.157c0,0.712,2.897,0.221,2.897-0.775
	c0-28.919,0-57.837,0-86.756c0-0.485-1.351-0.409-2.208,0.005c0.009-0.15-0.189-0.258-0.744-0.258c-0.036,0-0.071,0-0.107,0
	c-38.55,0-77.099,0-115.648,0c-0.094-0.04-0.213-0.063-0.352-0.074c-0.843-0.063-2.332,0.39-2.332,1.104c0,14.849,0,29.697,0,44.546
	c-0.128-0.027-0.267-0.047-0.428-0.047c-9.5,0-18.999,0-28.499,0c-0.32,0-0.597,0.08-0.823,0.208c-0.86-0.211-2.25,0.289-2.25,1.052
	c0,19.99,0,39.979,0,59.97c-6.015,0.037-12.063,0.215-18.064-0.027c-0.025,0-0.043-0.004-0.069-0.004c-0.038,0-0.077,0-0.115,0
	C343.956,280.833,342.067,282.6,344.069,282.684z M513.827,260.859c-38.514,0-77.027,0-115.542,0c0-22.143,0-44.285,0-66.428
	c38.106,0,76.211,0,114.318,0c0.32,0,0.849-0.184,1.278-0.411c0,22.28,0,44.562,0,66.841
	C513.862,260.861,513.848,260.859,513.827,260.859z M513.72,175.057c0.066-0.031,0.131-0.063,0.194-0.098
	c-0.02,0.057-0.032,0.115-0.032,0.176c0,6.006,0,12.011,0,18.016c-0.02,0-0.034-0.002-0.055-0.002c-38.514,0-77.027,0-115.542,0
	c0-0.464,0-0.927,0-1.391c0-5.457,0-10.913,0-16.37c38.106,0,76.211,0,114.318,0C512.885,175.388,513.325,175.246,513.72,175.057z
	 M386.66,341.169c1.42,0-1.278,1.178-1.881,1.178c-19,0-38,0-57,0c-1.42,0,1.278-1.178,1.881-1.178
	C348.66,341.169,367.66,341.169,386.66,341.169z M253.427,245.881c0.118-2.223,1.547-4.466,2.954-6.114
	c0.448-0.524,1.253-0.759,1.92-0.763c0.373-0.003,1.209,0.213,0.756,0.743c-1.271,1.489-5.08,7.875-0.454,6.951
	c0.305-0.061,1.404-0.073,1.225,0.522c-0.185,0.618-1.135,0.823-1.661,0.929C256.268,248.528,253.287,248.536,253.427,245.881z
	 M273.737,250.129c-1.129,1.602-3.041,2.106-4.911,2.129c-0.472,0.006-1.171-0.308-0.791-0.872c0.396-0.588,1.251-0.788,1.911-0.796
	c0.175-0.002,0.338-0.013,0.515-0.042c0.022-0.005,0.043-0.011,0.089-0.022c0.024-0.01,0.033-0.014,0.081-0.033
	c-0.149,0.071,0.156-0.131,0.174-0.148c0.088-0.089,0.158-0.188,0.23-0.291c0.4-0.567,1.249-0.814,1.911-0.796
	C273.398,249.27,274.14,249.557,273.737,250.129z M268.188,237.561c-0.541,0.416-1.375,0.631-2.049,0.55
	c-0.581-0.07-0.677-0.473-0.221-0.823c2.086-1.604,4.952-2.287,6.824-0.06c0.596,0.709-2.167,1.706-2.711,1.059
	c-0.351-0.417-0.777-0.918-1.322-1.081C268.529,237.315,268.357,237.431,268.188,237.561z M265.537,229.511
	c2.458-1.351,5.479-1.532,8.031-0.348c0.958,0.444-1.699,1.496-2.363,1.188c-1.232-0.571-2.702-1.043-3.969-0.348
	c-0.549,0.302-1.41,0.527-2.031,0.348C264.55,230.161,265.276,229.653,265.537,229.511z M364.04,370.851
	c-14.158-13.428-33.494-7.103-50.859-2.743c0.229-0.173,0.458-0.345,0.684-0.53c5.546-4.563,7.366-11.033,8.857-17.833
	c1.959-8.939,2.238-18.232,2.274-27.361l0.117-0.035c6.544-0.074,14.334-0.978,18.982-6.005c3.889-4.207,4.209-9.821,3.196-15.212
	c-0.888-4.731-2.876-9.331-5.24-13.506c-2.169-3.83-3.256-7.692-2.646-12.106c0.641-4.633,2.508-8.714,2.356-13.493
	c-0.345-10.89-9.247-16.927-17.035-22.841c-9.026-6.854-10.94-16.417-14.873-26.436c-3.87-9.858-11.392-14.37-19.938-15.436
	c-3.021-0.986-6.171-1.312-9.195-0.556c-1.354,0.339-2.761,0.797-4.188,1.334c-5.131,1.117-10.165,3.062-14.602,5.48
	c-3.943,2.15-6.933,4.912-9.1,8.103c-0.066,0.05-0.111,0.083-0.111,0.083l-0.055,0.164c-4.054,6.139-5.054,13.857-3.561,22.057
	c0.044,0.24,0.284,0.365,0.607,0.404c-1.817,6.85-3.855,14.092-2.286,20.14c-0.154,0.098-0.265,0.207-0.301,0.327
	c-1.711,5.801-5.709,10.553-7,16.5c-0.089,0.409-0.155,0.816-0.201,1.223c-0.129,0.448-0.204,0.851-0.204,1.186
	c0,0.324,0.057,0.698,0.154,1.105c0.333,5.132,3.557,9.93,6.23,14.115c0.22,0.345,0.963,0.252,1.644,0.027
	c-2.264,4.975-3.093,10.902-5.367,15.738c-0.988,0.091-2.183,0.777-1.672,1.418c3.042,3.822,6.994,6.008,11.8,6.699
	c0.054,0.008,0.105,0.021,0.16,0.029c0.145,0.02,0.332,0.023,0.532,0.013c0.073,0.88,0.179,1.757,0.309,2.629
	c0.592,3.962,1.72,7.844,2.918,11.691c-4.294-3.32-8.07-6.924-11.155-11.612c-3.228-4.905-5.769-10.17-9.271-14.908
	c-0.111-0.15-0.328-0.205-0.59-0.202c-0.224-0.354-0.774-0.457-1.333-0.376c-1.994-3.408-4.023-6.799-6.168-10.113
	c-1.286-1.987-4.006-0.508-5.791,0.218c-4.35,1.768-10.164,3.595-13.872,6.493c-2.374,1.856,0.628,5.362,2.266,7.462
	c-1.48,0.324-2.584,1.39-2.445,3.522c0.026,0.406,0.08,0.826,0.152,1.251c-6.84,2.812,0.043,10.271,4.992,13.167
	c0.004,0.006,0.005,0.011,0.009,0.016c-0.479,0.268-0.776,0.639-0.517,1.007c5.158,7.341,2.99,16.903,4.319,25.272
	c0.564,3.552,2.438,7.64,5.307,10.326c-4.335-0.572-8.888-0.935-13.387-0.797c0.164-9.198,0.339-18.396,0.352-27.598
	c0.001-0.571-2.896-0.125-2.897,0.777c-0.012,8.995-0.181,17.989-0.341,26.983c-5.722,0.469-11.245,1.854-15.963,4.775
	c-6.466,4.002-8.723,11.063-8.454,18.317c-5.78-0.004-11.561-0.006-17.341-0.007c0-15.95,0-31.899,0-47.849
	c0-0.486-1.351-0.41-2.208,0.003c0.008-0.149-0.19-0.257-0.744-0.257c-38.585,0-77.171,0-115.756,0
	c-0.666-0.279-2.683,0.197-2.683,1.029c0,28.919,0,57.837,0,86.756c0,0.354,0.719,0.409,1.441,0.253c38.591,0,77.183,0,115.774,0
	c0.32,0,0.849-0.183,1.278-0.411c0,0.053,0,0.105,0,0.158c0,0.711,2.897,0.219,2.897-0.777c0-12.607,0-25.214,0-37.82
	c5.8,0.002,11.6,0.003,17.399,0.006c0.397,5.582,2.231,11.193,4.757,15.537c9.987,17.174,30.571,10.254,45.775,17.291
	c1.292,0.598,3.344-1.268,1.646-2.053c-13.999-6.479-31.569-0.615-42.675-13.569c-3.748-4.371-6.25-10.833-6.662-17.204
	c7.409,0.004,14.818,0.008,22.228,0.009c0.548,0,3.279-1.084,1.905-1.084c-0.053,0-0.107,0-0.16,0
	c0.096-0.106,0.156-0.222,0.156-0.347c0.009-6.918,0.118-13.836,0.239-20.754c7.132-0.162,14.509,1.042,20.841,2.207
	c10.526,1.936,22.022,4.899,31.197,10.641c0.533,0.334,1.346,0.179,1.931-0.171c0.984,0.271,1.908,0.473,2.634,0.636
	c3.502,0.785,7.023,1.285,10.548,1.533c4.539,0.318,9.085,0.214,13.612-0.272c3.706-0.398,7.398-1.048,11.063-1.926
	c0.601-0.144,0.935-0.397,1.064-0.65c2.81-0.131,5.563-0.741,8.171-2.019c17.542-4.17,36.322-11.395,51.359,1.809
	c7.159,6.286,11.832,16.109,10.363,25.694c-1.028,6.709-6.338,11.366-12.044,14.348c-13.36,6.981-30.433,7.175-45.142,7.346
	c-12.417,0.144-24.801-0.811-37.209-0.88c-0.054-0.361-0.103-0.721-0.146-1.081c0.395-0.431,0.482-0.923-0.124-1.121
	c-0.328-3.672-0.103-7.306,0.59-11c0.289-1.537,0.73-3.045,1.193-4.536c0.168-0.521,0.348-1.037,0.539-1.551
	c0.093-0.258,0.169-0.427,0.234-0.561c4.62-0.898,9.203-1.991,13.736-3.249c17.576-4.876,33.896-18.5,52.86-13.392
	c0.99,0.267,3.424-1.207,1.752-1.658c-20.307-5.469-37.548,8.632-56.344,13.847c-3.622,1.005-7.295,1.836-10.975,2.601
	c-0.797,0.166-3.12,0.256-3.54,1.196c-0.324,0.728-0.607,1.473-0.88,2.22c-6.497,0.055-13.25,0.898-19.709,2.64
	c-0.011-0.124-0.087-0.245-0.27-0.354c-14.286-8.53-26.735-22.845-43.264-27.078c-0.875-0.225-3.409,1.104-1.789,1.518
	c16.159,4.139,28.482,18.318,42.461,26.754c-3.689,1.167-7.253,2.636-10.579,4.445c-4.371,2.378-8.271,5.72-10.384,10.294
	c-1.429,3.093-2.283,8.458-0.419,11.582c3.711,6.223,14.126,1.313,18.842-0.757c4.766-2.092,9.347-4.594,13.979-6.96
	c2.506-1.28,6.084-3.683,9.192-4.099c0.099,0.793,0.208,1.586,0.353,2.369c0.193,1.043,2.926,0.397,2.899-0.676
	c14.259,0.139,28.469,1.186,42.746,0.71c14.403-0.479,31.141-1.594,43.713-9.429c5.727-3.568,9.754-8.389,10.797-15.195
	C376.206,386.451,370.621,377.092,364.04,370.851z M344.869,307.511c-0.012,0.372-0.006,0.743-0.037,1.115
	c-0.138,1.668-0.552,3.098-1.151,4.355C344.231,311.525,344.688,309.711,344.869,307.511z M336.72,274.758
	c0.023-0.054,0.047-0.11,0.07-0.164c-0.505,2.34-0.476,4.484-0.091,6.531C335.757,279.191,335.537,277.519,336.72,274.758z
	 M337.458,318.717c-1.619,0.718-3.396,1.213-5.234,1.54L337.458,318.717z M161.431,333.95c-0.02,0.057-0.031,0.114-0.031,0.175
	c0,6.006,0,12.012,0,18.018c-0.02-0.001-0.034-0.003-0.055-0.003c-0.208,0-0.417,0-0.625,0c-38.305,0-76.61,0-114.916,0
	c0-5.921,0-11.841,0-17.761c38.105,0,76.212,0,114.318,0c0.16,0,0.373-0.046,0.598-0.12
	C160.957,334.181,161.208,334.071,161.431,333.95z M161.4,419.854c-0.02-0.001-0.034-0.003-0.055-0.003
	c-38.514,0-77.027,0-115.542,0c0-22.143,0-44.285,0-66.428c38.105,0,76.212,0,114.318,0c0.32,0,0.849-0.183,1.278-0.411
	c0,9.396,0,18.79,0,28.186c-1.2-0.001-2.399-0.002-3.599-0.002c-0.548,0-3.279,1.084-1.905,1.084c1.835,0,3.669,0.002,5.504,0.002
	C161.4,394.805,161.4,407.329,161.4,419.854z M205.774,381.215c-7.095-0.002-14.19-0.005-21.286-0.009
	c-0.197-7.3,2.432-14.319,9.2-17.751c3.739-1.896,7.956-2.836,12.331-3.186C205.897,367.251,205.788,374.232,205.774,381.215z
	 M308.82,218.959c-0.961-1.963-1.617-3.645-1.915-4.906C307.595,215.652,308.223,217.299,308.82,218.959z M287.985,240.2
	c-0.025,0.025-0.053,0.049-0.078,0.075c-0.014-0.018-0.027-0.034-0.04-0.051C287.906,240.217,287.945,240.208,287.985,240.2z
	 M259.612,206.998c2.935-2.406,6.363-4.36,10.022-5.806c-3.706,1.899-7.249,4.041-10.128,5.899
	C259.543,207.062,259.575,207.028,259.612,206.998z M251.715,220.868c0.2,0.011,0.413,0.021,0.638,0.032
	c-0.006,0.01-0.011,0.019-0.017,0.028c-0.124,0.207-0.115,0.426-0.031,0.619c-0.228,0.184-0.379,0.412-0.379,0.677
	c0.001,1.662-0.226,3.445-0.579,5.306C251.243,225.26,251.352,223.027,251.715,220.868z M251.994,236.362
	c0.452,0.087,0.986-0.026,1.338-0.194c0.064-0.032,0.131-0.061,0.197-0.09c0.002,0.002,0.004,0.004,0.007,0.006
	c0.001,0,0.003,0.002,0.004,0.002c0.199,0.148,0.311,0.412,0.397,0.727c0.333,1.204,3.229,0.423,2.897-0.777
	c-0.573-2.073-2.715-2.175-4.428-1.475c0.499-2.142,0.997-4.189,1.414-6.05c0.037,0.002,0.076,0.006,0.111,0.007
	c1.113,0.02,1.948,0.591,2.463,1.554c0.633,1.184,3.384,0.081,2.648-1.295c-0.954-1.783-2.86-2.384-4.761-2.44
	c0.288-1.451,0.482-2.725,0.54-3.77c7.396,1.698,15.761,0.846,22.479-2.739c0.411-0.068,0.418-0.069,0.418-0.069
	s0.233,1.279,0.658,3.162c0.507,6.931,2.761,13.584,7.314,19.014c0.217,0.26,0.867,0.214,1.484,0.029
	c0.648,0.187,2.351-0.127,2.649-0.758c0.356-0.755,0.82-1.205,1.335-1.428c0.653-0.033,1.298-0.021,1.901,0.054
	c0.641,0.255,1.266,0.705,1.792,1.259c1.693,1.785,0.58,4.48-0.5,6.188c-1.474,2.329-4.931,3.692-5.414,6.6
	c-0.044,0.266-0.065,0.539-0.094,0.811c-0.076,0.043-0.125,0.07-0.125,0.07s0.024,0.152,0.068,0.419
	c-0.262,3.382,0.51,7.063,1.453,10.19c0.164,0.544,0.364,1.215,0.6,1.939c-0.516,0.057-1.036,0.181-1.251,0.331
	c-2.45,1.709-6.307,1.708-9.377,0.979c0.094-0.688-0.678-0.979-1.464-0.891c-0.323-2.707-1.317-4.413-2.744-5.46
	c-0.169-0.323-0.285-0.509-0.285-0.509s-0.162,0.02-0.438,0.053c-4.292-2.32-11.574-0.078-16.91-0.418
	C247.587,260.707,249.446,247.694,251.994,236.362z M253.602,236.045c0.007-0.002,0.014-0.006,0.021-0.009
	C253.613,236.04,253.611,236.042,253.602,236.045C253.603,236.045,253.603,236.045,253.602,236.045z M248.66,257.678
	c0.051,0.094,0.103,0.187,0.156,0.28c-0.273,0.366-0.598,0.808-0.958,1.305C248.135,258.734,248.407,258.207,248.66,257.678z
	 M256.001,308.409c0.011-0.261-0.125-0.433-0.335-0.538c0.655-4.176,1.273-8.354,2.337-12.457c0.281-1.086-2.64-0.649-2.9,0.354
	c-1.288,4.969-1.925,10.051-2.765,15.105c-3.059-0.771-5.644-2.271-7.835-4.58c0.112-0.099,0.21-0.209,0.277-0.338
	c2.244-4.311,3.166-9.005,4.611-13.605c1.897-6.037,5.915-9.753,11.789-11.846c6.815-2.428,14.426-3.756,18.276-10.313
	c3.953,0.624,8.432,0.09,11.724-1.886c0.194,0.549,0.407,1.107,0.641,1.656c-0.271,0.311-0.361,0.703-0.091,1.111
	c0.471,0.714,0.996,1.344,1.546,1.936c0.473,0.949,0.958,1.588,1.444,1.75c0.193,0.064,0.446,0.133,0.747,0.207
	c5.096,3.778,12.06,4.683,17.651,7.836c2.828,1.595,4.817,3.92,6.215,6.688c1.413,4.403,2.402,10.689,3.077,16.62
	c0.047,5.348-0.385,10.654-0.478,14.941c-0.431,0.072-0.833,0.202-1.024,0.367c-2.979,2.575-7.824,3.142-11.604,3.283
	c-4.178,0.155-6.387-1.289-7.303-5.295c-1.385-6.061-0.083-12.568,0-18.703c0.01-0.753-2.884-0.259-2.897,0.775
	c-0.061,4.474-0.532,8.922-0.489,13.4c0.028,2.849,0.047,8.289,2.999,10.037c-1.526,6.314,0.123,13.549-0.046,19.989
	c-0.047,1.787-0.242,3.566-0.711,5.294c-0.843,3.104-4.464,1.867-6.602,1.13c-3.943-1.358-7.607-3.641-11.101-5.875
	c-2.728-1.745-5.448-3.525-8.16-5.321c-4.885-3.234-9.73-6.543-14.491-9.919c-0.001-0.004,0-0.007-0.001-0.011
	c-0.168-0.541-0.338-1.082-0.51-1.625C257.923,322.028,255.721,315.342,256.001,308.409z M210.406,298.345
	c-0.875-2.46,7.704-5.322,9.459-6.129c0.943-0.433,4.377-2.583,5.147-1.429c1.05,1.577,2.027,3.205,3.013,4.822
	c1.385,2.273,2.74,4.567,4.079,6.869c0.066,0.113,0.2,0.173,0.371,0.198c-0.166,2.019-0.368,4.029-0.731,6.026
	c-0.267,1.469-0.715,2.919-1.665,4.094c-1.236,1.529-4.039-1.509-4.667-2.169c-2.979-3.133-5.011-7.306-9.506-8.449
	c-0.686-0.175-1.922,0.024-2.227,0.792c-0.071,0.178-0.114,0.352-0.171,0.527C212.331,301.848,211.105,300.31,210.406,298.345z
	 M225.484,357.952c-10.052-8.406-3.618-23.099-8.776-33.687c3.874,2.152,8.069,4.035,12.088,6.131
	c-0.168,0.176-0.253,0.374-0.192,0.582c1.046,3.541,2.454,6.96,3.5,10.5c0.297,1.008,3.189,0.209,2.897-0.775
	c-0.844-2.856-1.914-5.636-2.849-8.461c2.966,1.729,5.748,3.659,8.114,6.021c1.109,1.107,2.24,2.189,3.381,3.26
	C239.982,348.004,233.773,364.884,225.484,357.952z M257.604,354.979c0.228,4.219-2.152,8.269-1.583,12.455
	c-7.169-3.237-15.038-5.316-22.72-6.841c5.631-3.022,9.171-11.753,12.134-17.421c4.251,3.853,8.714,7.447,13.378,10.755
	C258.164,354.119,257.578,354.498,257.604,354.979z M296.656,372.209c-9.363,1.772-18.65,1.751-28.129-0.035
	c-4.543-0.856-10.173-2.231-9.607-7.883c0.313-3.123,1.515-6.045,1.582-9.184c0-0.004,0-0.007,0-0.011
	c0.015,0.011,0.029,0.021,0.044,0.03c6.136,4.216,12.602,7.955,19.372,11.162c5.286,2.504,11.356,4.949,17.379,5.652
	c0.137,0.016,0.274,0.03,0.412,0.045C297.357,372.057,297.006,372.143,296.656,372.209z M307.911,369.363
	c-1.912,0.422-3.789,0.791-5.621,1.074c-0.251,0.039-0.5,0.127-0.724,0.24c-3.075,0.084-6.3-0.486-9.524-1.459
	c-5.135-1.552-10.256-4.104-14.739-6.594c-2.437-1.354-4.688-2.688-6.643-3.829c-6.649-3.881-12.857-8.469-18.741-13.421
	c-1.746-1.47-3.39-3.109-5.044-4.739c0.007-0.011,0.014-0.023,0.021-0.034c0.332-0.518-0.137-0.718-0.776-0.709
	c-1.952-1.91-3.94-3.769-6.149-5.283c-6.964-4.775-14.858-8.047-22.091-12.384c0.025-0.071-0.006-0.131-0.129-0.169
	c-0.126-0.039-0.247-0.095-0.372-0.139c-0.559-0.341-1.123-0.672-1.673-1.027c-0.161-0.104-0.402-0.137-0.672-0.119
	c-1.846-1.16-3.463-2.772-4.768-4.419c-0.984-1.242-2.958-4.517-1.787-6.202c0.778,2.988,2.56,6.086,4.934,7.691
	c0.884,0.598,3.526-0.659,2.279-1.502c-1.989-1.346-3.18-3.902-3.989-6.076c-0.401-1.078-0.72-2.26-0.735-3.416
	c-0.005-0.353,0.061-0.702,0.187-1.029c0.442,0.105,0.855,0.321,1.258,0.523c0.185,0.093,0.434,0.115,0.705,0.09
	c0.277,4.22,4.068,7.649,7.306,10.449c0.88,0.762,3.471-0.531,2.258-1.58c-3.001-2.598-7.171-6.219-6.655-10.493
	c4.52,2.833,6.914,10.813,12.667,10.346c5.14-0.418,6.179-5.844,6.568-10.531c3.054,4.702,5.609,9.706,8.84,14.303
	c3.541,5.038,8.581,8.716,13.589,12.22c0.104,0.073,0.207,0.146,0.311,0.218c0.535,0.374,1.069,0.747,1.601,1.118
	c9.161,6.406,18.771,13.581,28.849,18.516c3.975,1.945,12.361,4.842,15.016-0.656c3.461-7.166-0.287-16.293,0.671-24.065
	c0.018-0.143,0.026-0.287,0.047-0.429c0.338,0.082,0.686,0.149,1.039,0.211c5.147,0.896,11.752-0.315,16.104-2.957
	c0.239-0.146,0.472-0.294,0.696-0.447c0.021,0.039,0.046,0.073,0.073,0.107c0,0.077-0.001,0.153-0.002,0.23
	c-0.042,6.785-0.313,13.547-1.134,20.291c-0.912,7.493-2.325,16.512-7.628,22.245C311.696,367.297,309.868,368.535,307.911,369.363z
	 M274.075,416.256c-4.95,0.771-10.178,4.39-14.231,6.483c-5.883,3.039-15.927,9.954-22.89,7.838
	c-3.704-1.126-2.724-6.856-2.288-9.569c0.897-5.584,5.928-9.438,10.565-11.962c8.977-4.884,20.162-6.858,30.327-6.982
	C274.176,406.644,273.703,411.491,274.075,416.256z" fill="#4a4a4a"></path>
</svg>