<?xml version="1.0" standalone="no"?>
<svg version="1.1" id="Layer_1" xmlns="http://www.w3.org/2000/svg" xmlns:xlink="http://www.w3.org/1999/xlink" x="0px" y="0px" viewBox="0 0 595.276 595.276" enable-background="new 0 0 595.276 595.276" xml:space="preserve">
<path id="color_x5F_10" fill="#EFEBE9" d="M280.764,194.842c-4.653,0-8.663,2.771-10.491,6.745l3.593,1.283
	c1.286-2.507,3.892-4.23,6.898-4.23c4.276,0,7.755,3.479,7.755,7.754s-3.479,7.754-7.755,7.754s-7.754-3.479-7.754-7.754
	c0-0.564,0.064-1.112,0.179-1.642l-3.588-1.281c-0.245,0.935-0.389,1.911-0.389,2.923c0,6.37,5.182,11.552,11.552,11.552
	s11.552-5.182,11.552-11.552S287.133,194.842,280.764,194.842z M305.555,222.079v-32.175c0-2.225-1.804-4.029-4.029-4.029h-52.049
	c-2.225,0-4.029,1.804-4.029,4.029v32.175c0,2.225,1.804,4.029,4.029,4.029h42.572l12.603,10.53l-3.369-10.53h0.243
	C303.751,226.107,305.555,224.304,305.555,222.079z M280.764,221.027c-8.069,0-14.633-6.565-14.633-14.633
	c0-1.374,0.204-2.7,0.56-3.962l-9.504-3.393l0.673-1.884l9.499,3.391c2.262-5.165,7.416-8.786,13.406-8.786
	c8.069,0,14.633,6.564,14.633,14.633C295.397,214.463,288.832,221.027,280.764,221.027z M276.09,206.394
	c0,2.577,2.096,4.673,4.673,4.673s4.673-2.096,4.673-4.673c0-2.577-2.096-4.673-4.673-4.673c-1.667,0-3.122,0.884-3.95,2.201
	l2.874,1.026c0.301-0.225,0.671-0.362,1.076-0.362c0.999,0,1.808,0.81,1.808,1.808c0,0.999-0.81,1.808-1.808,1.808
	c-0.847,0-1.552-0.585-1.749-1.37l-2.865-1.023C276.125,206.003,276.09,206.194,276.09,206.394z"></path>
<path id="color_x5F_9" fill="#9e8a84" d="M294.608,377.857l48.947-10.459c-9.892,1.159-20.195,0.482-28.329-2.38l-0.029,0.004
	L294.608,377.857z M300.521,413.859l0.81,2.349l0.261,0.756l15.582,45.198l9.545-2.597l-4.529-36.942
	c-0.704-5.742-2.179-11.347-4.37-16.667c-0.994-2.414-2.149-4.762-3.434-7.045c-4.067-0.024-7.775-0.187-10.86-0.389
	C303.156,403.736,302.138,408.883,300.521,413.859z"></path>
<path id="color_x5F_8" fill="#a38d86" d="M364.506,361.586c-0.807,0.397-1.636,0.778-2.495,1.141l-3.049-8.712h-0.541l-0.723,10.324
	c-3.211,1.053-6.644,1.889-10.189,2.488v27.283c3.501-1.747,6.593-4.11,9.158-6.932C362.77,380.46,365.89,371.174,364.506,361.586z
	 M294.608,377.857l-6.492,1.387l0.074,0.165l-0.174,0.174l-12.901,70.872l9.593,2.413l14.152-34.423
	c0.62-1.508,1.159-3.042,1.662-4.588c1.617-4.976,2.635-10.123,3.004-15.337c3.086,0.202,6.793,0.366,10.86,0.389
	c7.725,0.045,16.741-0.418,25.247-2.106c1.906-0.378,3.734-0.931,5.478-1.624v-27.994c-0.518,0.071-1.034,0.149-1.556,0.21
	L294.608,377.857z"></path>
<path id="color_x5F_7" fill="#ffffff" d="M488.388,499.098h-10.227h-8.152h-2.953h-4.668h-3.003h-4.201h-2.841h-5.312h-2.742h-6.46
	h-2.836h-1.015h-2.879h-2.315h-3.138h-5.178h-21.064V443.2v-0.719V356.21c0-0.805-0.065-1.55-0.17-2.196h-2.058
	c-0.106,0.646-0.17,1.391-0.17,2.196v18.439v1.137v68.193v0.709v54.409h-26.259c-0.117-5.291-4.435-9.547-9.754-9.547h-13.484
	v-24.402v-0.561v-58.632h8.405h1.593h9.622c5.186,0,9.39-4.204,9.39-9.39s-4.204-9.39-9.39-9.39h-10.462
	c-2.564,2.823-5.657,5.186-9.158,6.932v-27.283v-10.616c0-0.805-0.065-1.55-0.17-2.196h-2.058c-0.106,0.646-0.17,1.391-0.17,2.196
	v10.976v27.994c-1.745,0.693-3.572,1.245-5.478,1.624c-8.506,1.688-17.522,2.151-25.247,2.106c1.285,2.283,2.44,4.631,3.434,7.045
	h14.301v61.593v0.529v5.7c0.959,0.936,1.481,2.143,1.559,3.364l0.01-0.017l1.664,17.028l-1.628,0.374l-1.654-4.976h-5.804
	l-5.597,7.972l-10.117,2.322l3.799-4.3l1.989-5.994h-7.121c-5.32,0-9.637,4.256-9.754,9.547h-47.936v-18.843l-0.651-0.192
	l0.651-0.227V460.56v-0.617V356.211c0-0.805-0.065-1.55-0.17-2.196h64.25h27.513v-4.287h-26.518h-3.646h-28.743l-8.905-38.385
	h-57.165h-1.698l8.905,38.385h-35.861v4.287h11.566c-0.106,0.646-0.17,1.391-0.17,2.196v75.826v0.778v66.283H83.07
	c-1.77,0-3.204,1.435-3.204,3.204s1.435,3.204,3.204,3.204h405.319c1.77,0,3.204-1.435,3.204-3.204S490.158,499.098,488.388,499.098
	z M338.093,467.114v-0.532v-60.626h7.018v59.194v0.562v23.839h-7.018V467.114z M203.286,434.686v-0.764v-77.711
	c0-0.79-0.063-1.52-0.165-2.158c-0.002-0.012-0.004-0.026-0.006-0.038h0.823h45.365c-0.106,0.646-0.17,1.391-0.17,2.196v102.884
	v0.634v39.369h-45.846v-64.412L203.286,434.686L203.286,434.686z M356.687,324.996c-0.198,4.763,1.959,10.066,4.393,17.466h8.034
	c5.477,0,9.917-4.44,9.917-9.917V311.87c0-5.477-4.44-9.917-9.917-9.917h-5.983c-1.526,5.699-3.045,9.639-4.483,14.449
	C357.977,319.191,357.318,322.031,356.687,324.996z M330.515,213.629c0.005-0.043,0.019-0.082,0.025-0.124
	c0.243-1.662,1.653-2.949,3.382-2.949h4.063h5.449c3.337,0,6.052,2.714,6.052,6.051v21.602c-2.476,0.293-4.404,2.375-4.404,4.93
	c0,1.078,0.35,2.069,0.931,2.885c0.303,0.425,0.673,0.794,1.091,1.105l-0.84,1.428c-2.772,4.716-7.165,8.24-12.371,9.921
	c-0.525,0.17-0.813,0.733-0.644,1.259c0.137,0.423,0.528,0.693,0.951,0.693c0.102,0,0.205-0.016,0.308-0.049
	c5.672-1.833,10.459-5.672,13.48-10.811l0.934-1.589c0.334,0.079,0.68,0.127,1.037,0.135c0.038,0.001,0.074,0.011,0.112,0.011
	c2.755,0,4.989-2.234,4.989-4.989c0-2.26-1.513-4.147-3.574-4.76v-21.772c0-4.439-3.612-8.051-8.052-8.051h-3.463h-6.049
	c-3.002,0-5.444,2.442-5.444,5.444c0,0.175,0.062,0.327,0.145,0.467c0.022,0.037,0.037,0.078,0.063,0.113L330.515,213.629z"></path>
<path id="color_x5F_6" fill="#37474F" d="M284.216,349.728h28.743l-0.626-2.699h-27.045l-0.884-3.808l-2.36-10.174l-5.035-21.705
	h-1.698L284.216,349.728z M343.123,354.015h2.159h2.057h11.082h0.541h5.416h32.798h2.058h6.55v-4.287h-42.497h-20.164
	L343.123,354.015L343.123,354.015z"></path>
<path id="color_x5F_5" fill="#FFD2BB" d="M308.37,333.135c1.015-0.191,2.094-0.416,3.228-0.673c-0.301-2.112-0.429-4.247-0.448-6.33
	c-4.611,1.858-9.349,3.807-13.576,5.388c0.883-0.026,1.753,0.046,2.582,0.24C302.942,331.743,305.715,332.221,308.37,333.135z
	 M290.047,342.736c0.677-0.302,1.231-0.798,1.617-1.404c-0.469,0.12-0.936,0.246-1.402,0.378c-0.442,0.125-0.764-0.588-0.33-0.864
	c1.65-1.052,3.711-1.891,5.808-2.256c-0.021-0.113-0.04-0.225-0.057-0.336c-0.11,0.003-0.22,0.002-0.33,0.008
	c-2.019,0.115-4.013,0.6-5.978,1.155c-0.442,0.125-0.764-0.587-0.33-0.864c1.846-1.177,4.208-2.088,6.557-2.364
	c0-0.004,0.001-0.009,0.001-0.013c-0.25-0.003-0.5,0.001-0.751,0.015c-2.019,0.115-4.013,0.6-5.978,1.155
	c-0.442,0.125-0.764-0.588-0.33-0.864c2.127-1.356,4.937-2.363,7.626-2.448c0.054-0.121,0.114-0.244,0.175-0.366
	c-0.036,0.002-0.072,0.001-0.109,0.003c-2.019,0.115-4.013,0.6-5.978,1.155c-0.442,0.125-0.764-0.587-0.33-0.864
	c0.362-0.231,0.745-0.451,1.143-0.659c-2.471-0.448-4.986-0.533-7.463-0.226c-0.514-0.058-1.039-0.057-1.568-0.029l2.36,10.173
	C286.373,343.566,288.258,343.534,290.047,342.736z M319.67,469.404l0.47,1.362l-3.279,17.22l4.755,0.113l8.668-8.263l-0.805-8.599
	l-1.507-1.446l-0.141-1.154l-0.063-0.514l-1.049-8.558l-9.545,2.596l2.325,6.744L319.67,469.404z M273.485,459.411l-4.645,5.512
	l-0.401,0.476l-6.25,7.416l4.09,2.429l11.604-2.956l1.082-2.431l2.43-5.46l0,0l0,0l-0.605-1.999l3.918-9.529h-0.001l-9.592-2.413
	l0,0L273.485,459.411z M339.242,274.895l1.324-0.14c0.329-2.515,0.657-5.031,0.986-7.546c3.411-1.343,6.617-3.259,9.413-5.634
	l-0.529-7.848l-0.149-2.218l-0.126,0.013c0.209-0.963,0.326-1.96,0.326-2.986l-0.527-0.42c-0.357-0.008-0.702-0.055-1.037-0.135
	l-0.934,1.589c-3.021,5.139-7.809,8.978-13.48,10.811c-0.103,0.033-0.206,0.049-0.308,0.049c-0.423,0-0.814-0.27-0.951-0.693
	c-0.17-0.526,0.118-1.089,0.644-1.259c5.206-1.682,9.599-5.206,12.371-9.921l0.84-1.428c-0.418-0.311-0.788-0.68-1.091-1.105
	c-4.088-1.061-8.017-2.802-11.627-5.251c-4.749-3.223-9.132-7.478-11.629-12.502l1.049,11.645l1.131,12.553
	c0,5.589,4.562,10.107,7.94,10.107h3.57c0.665,0,1.315-0.062,1.955-0.152l0.367,5.444l0,0L339.242,274.895z M290.262,334.825
	c1.965-0.555,3.959-1.04,5.978-1.155c0.036-0.002,0.072-0.001,0.109-0.003c-0.061,0.122-0.122,0.245-0.175,0.366
	c-2.689,0.085-5.499,1.091-7.626,2.448c-0.434,0.277-0.113,0.989,0.33,0.864c1.965-0.555,3.959-1.04,5.978-1.155
	c0.251-0.014,0.501-0.017,0.751-0.015c0,0.004-0.001,0.009-0.001,0.013c-2.35,0.276-4.711,1.187-6.557,2.364
	c-0.434,0.277-0.113,0.989,0.33,0.864c1.965-0.555,3.959-1.04,5.978-1.155c0.11-0.006,0.22-0.005,0.33-0.008
	c0.017,0.111,0.036,0.222,0.057,0.336c-2.097,0.365-4.158,1.204-5.808,2.256c-0.434,0.277-0.113,0.989,0.33,0.864
	c0.466-0.131,0.933-0.258,1.402-0.378c1.51-0.385,3.035-0.69,4.576-0.777c3.164,1.437,6.179,2.487,9.178,1.551
	c1.154-0.36,2.051-1.259,2.422-2.395c3.864-0.285,7.481-0.437,10.921-0.536c3.363-0.097,6.568-0.151,9.668-0.239
	c-0.597-3.582-0.496-7.311-0.112-10.853c-5.774,1.572-11.747,3.255-16.719,4.38c-1.134,0.257-2.213,0.482-3.228,0.673
	c-2.655-0.914-5.428-1.392-8.214-1.375c-0.828-0.194-1.699-0.266-2.582-0.24c-2.236,0.065-4.556,0.768-6.499,1.783
	c-0.398,0.208-0.781,0.428-1.143,0.659C289.498,334.238,289.819,334.95,290.262,334.825z"></path>
<path id="color_x5F_3" fill="#E84393" d="M334.385,240.773c3.61,2.45,7.539,4.19,11.627,5.251c-0.581-0.816-0.931-1.807-0.931-2.885
	c0-2.555,1.928-4.637,4.404-4.93v-21.602c0-3.337-2.715-6.051-6.052-6.051h-5.449c-0.011,0.015-0.024,0.029-0.036,0.044
	c-0.316,0.417-0.593,0.861-0.842,1.32c-2.257,0.148-4.49,0.688-6.566,1.585c-0.006,0.042-0.021,0.081-0.025,0.124l-1.83,0.952
	c-0.026-0.035-0.041-0.076-0.063-0.113c-2.812,1.596-5.216,3.871-6.8,6.697c-3.288,5.867-2.566,13.838,1.983,18.751l-1.049-11.645
	C325.253,233.294,329.635,237.55,334.385,240.773z M351.485,216.607v21.772c2.061,0.613,3.574,2.5,3.574,4.76
	c0,2.755-2.234,4.989-4.989,4.989c-0.038,0-0.074-0.01-0.112-0.011l0.527,0.42c0,1.026-0.117,2.023-0.326,2.986l0.126-0.013
	l0.149,2.218c4.627-2.543,8.205-7.028,9.685-12.129c1.098-3.782,1.078-7.823,0.131-11.649c0.498-0.708,0.929-1.462,1.281-2.251
	c1.865-4.18,1.586-9.184-0.452-13.282c-2.08-4.184-6.044-7.48-10.632-8.367c-3.638-0.704-7.59,0.234-10.478,2.508h3.463
	C347.873,208.556,351.485,212.168,351.485,216.607z"></path>
<path id="color_x5F_2" fill="#b4aa92" d="M418.682,262.17c0.039,0,0.08-0.006,0.119-0.02c0.194-0.066,0.299-0.276,0.233-0.471
	c-0.319-0.946-0.65-1.885-0.992-2.82c-0.07-0.192-0.283-0.291-0.477-0.221c-0.193,0.071-0.292,0.284-0.221,0.477
	c0.34,0.929,0.668,1.863,0.986,2.803C418.382,262.072,418.527,262.17,418.682,262.17z M424.15,290.958
	c0.07,0.985,0.128,1.973,0.173,2.965c0.009,0.199,0.173,0.355,0.371,0.355c0.005,0,0.011,0,0.017,0
	c0.205-0.009,0.363-0.183,0.354-0.388c-0.045-0.998-0.103-1.993-0.173-2.985c-0.015-0.205-0.207-0.362-0.397-0.344
	C424.29,290.576,424.136,290.753,424.15,290.958z M424.295,310.881c0.189,0,0.351-0.144,0.369-0.336
	c0.094-0.99,0.175-1.983,0.243-2.98c0.014-0.205-0.141-0.382-0.345-0.396c-0.205-0.009-0.382,0.141-0.396,0.345
	c-0.068,0.99-0.148,1.977-0.242,2.96c-0.019,0.204,0.131,0.386,0.335,0.405C424.271,310.88,424.283,310.881,424.295,310.881z
	 M414.351,346.973c-0.405,0.908-0.82,1.809-1.248,2.704c-0.089,0.186-0.01,0.407,0.175,0.495c0.052,0.025,0.107,0.036,0.16,0.036
	c0.139,0,0.271-0.078,0.335-0.211c0.43-0.901,0.849-1.808,1.257-2.721c0.083-0.188-0.001-0.407-0.188-0.491
	C414.655,346.703,414.435,346.786,414.351,346.973z M415.798,254.517c0.048,0,0.096-0.009,0.143-0.029
	c0.189-0.079,0.279-0.296,0.2-0.486c-0.382-0.917-0.777-1.829-1.183-2.734c-0.084-0.188-0.304-0.271-0.49-0.188
	c-0.187,0.084-0.271,0.304-0.187,0.491c0.403,0.899,0.794,1.805,1.175,2.717C415.515,254.431,415.652,254.517,415.798,254.517z
	 M417.42,339.384c-0.34,0.934-0.691,1.863-1.055,2.786c-0.075,0.191,0.018,0.407,0.209,0.482c0.045,0.018,0.091,0.026,0.136,0.026
	c0.148,0,0.288-0.089,0.345-0.235c0.366-0.93,0.72-1.865,1.062-2.805c0.07-0.193-0.029-0.406-0.222-0.476
	C417.703,339.093,417.49,339.192,417.42,339.384z M425.153,302.341c0.025-0.993,0.037-1.989,0.037-2.988v-0.233
	c0-0.205-0.166-0.371-0.371-0.371s-0.371,0.166-0.371,0.371v0.233c0,0.993-0.012,1.983-0.037,2.97
	c-0.005,0.205,0.157,0.376,0.362,0.381c0.004,0,0.007,0,0.009,0C424.982,302.704,425.148,302.543,425.153,302.341z M420.406,331.349
	c-0.2-0.061-0.403,0.057-0.459,0.255c-0.273,0.953-0.557,1.901-0.853,2.845c-0.062,0.195,0.047,0.404,0.243,0.465
	c0.037,0.012,0.074,0.017,0.111,0.017c0.158,0,0.305-0.102,0.354-0.26c0.299-0.95,0.585-1.904,0.859-2.863
	C420.717,331.611,420.603,331.406,420.406,331.349z M421.028,270.019c0.03,0,0.062-0.004,0.094-0.012
	c0.199-0.052,0.318-0.255,0.266-0.453c-0.252-0.966-0.515-1.927-0.791-2.883c-0.057-0.197-0.265-0.31-0.46-0.254
	c-0.197,0.057-0.311,0.263-0.254,0.46c0.274,0.95,0.536,1.905,0.786,2.864C420.712,269.908,420.862,270.019,421.028,270.019z
	 M423.606,282.418c-0.203,0.029-0.345,0.217-0.316,0.42c0.138,0.978,0.264,1.96,0.378,2.946c0.023,0.189,0.183,0.329,0.369,0.329
	c0.015,0,0.029-0.001,0.044-0.003c0.204-0.024,0.35-0.208,0.326-0.412c-0.115-0.992-0.242-1.98-0.381-2.964
	C423.998,282.53,423.812,282.386,423.606,282.418z M412.387,247.092c0.057,0,0.113-0.013,0.167-0.04
	c0.184-0.092,0.257-0.316,0.165-0.499c-0.446-0.889-0.904-1.771-1.372-2.647c-0.098-0.182-0.325-0.248-0.503-0.152
	c-0.181,0.096-0.25,0.322-0.153,0.503c0.465,0.87,0.921,1.747,1.365,2.63C412.121,247.017,412.251,247.092,412.387,247.092z
	 M421.538,327.025c0.029,0.007,0.058,0.01,0.086,0.01c0.168,0,0.321-0.115,0.361-0.285c0.231-0.969,0.449-1.941,0.656-2.917
	c0.042-0.201-0.086-0.398-0.287-0.44c-0.202-0.038-0.398,0.086-0.44,0.287c-0.205,0.971-0.422,1.936-0.651,2.898
	C421.216,326.777,421.339,326.978,421.538,327.025z M423.181,318.999c0.021,0.004,0.041,0.005,0.062,0.005
	c0.178,0,0.335-0.129,0.366-0.31c0.163-0.982,0.313-1.967,0.451-2.956c0.028-0.204-0.113-0.391-0.316-0.419
	c-0.197-0.023-0.392,0.113-0.419,0.316c-0.137,0.983-0.286,1.962-0.448,2.937C422.842,318.774,422.978,318.966,423.181,318.999z
	 M422.883,278.007c0.202-0.038,0.334-0.232,0.297-0.433c-0.184-0.981-0.379-1.958-0.587-2.931c-0.044-0.2-0.239-0.33-0.441-0.285
	c-0.2,0.042-0.329,0.24-0.286,0.441c0.206,0.966,0.401,1.937,0.584,2.913c0.033,0.178,0.189,0.303,0.364,0.303
	C422.837,278.014,422.86,278.011,422.883,278.007z M276.102,412.903c0.959,0.264,1.923,0.516,2.892,0.756
	c0.03,0.007,0.06,0.011,0.09,0.011c0.167,0,0.318-0.113,0.36-0.282c0.049-0.199-0.072-0.4-0.271-0.45
	c-0.962-0.239-1.92-0.489-2.873-0.752c-0.197-0.053-0.402,0.062-0.457,0.26C275.788,412.644,275.904,412.849,276.102,412.903z
	 M389.743,383.419c0.094,0,0.189-0.036,0.26-0.107c0.71-0.699,1.412-1.407,2.104-2.123c0.143-0.148,0.139-0.383-0.009-0.525
	s-0.384-0.139-0.525,0.009c-0.688,0.712-1.385,1.415-2.091,2.11c-0.147,0.144-0.148,0.379-0.004,0.525
	C389.551,383.382,389.648,383.419,389.743,383.419z M351.306,407.867c-0.917,0.371-1.84,0.731-2.768,1.08
	c-0.192,0.072-0.289,0.286-0.217,0.478c0.056,0.149,0.197,0.241,0.348,0.241c0.044,0,0.088-0.007,0.131-0.024
	c0.934-0.35,1.862-0.712,2.785-1.085c0.19-0.077,0.282-0.294,0.205-0.484C351.712,407.883,351.494,407.792,351.306,407.867z
	 M213.894,227.793c-0.606,0.792-1.203,1.591-1.789,2.398c-0.121,0.166-0.084,0.398,0.082,0.519c0.066,0.048,0.142,0.071,0.218,0.071
	c0.115,0,0.228-0.053,0.301-0.153c0.583-0.802,1.176-1.596,1.778-2.383c0.125-0.163,0.094-0.396-0.069-0.521
	C214.252,227.6,214.02,227.631,213.894,227.793z M383.709,388.956c0.086,0,0.171-0.029,0.242-0.089
	c0.757-0.648,1.505-1.305,2.245-1.97c0.153-0.137,0.165-0.372,0.028-0.525c-0.138-0.154-0.374-0.166-0.524-0.028
	c-0.736,0.662-1.479,1.315-2.232,1.959c-0.156,0.133-0.174,0.368-0.041,0.524C383.5,388.911,383.604,388.956,383.709,388.956z
	 M219.118,221.445c-0.659,0.747-1.309,1.502-1.95,2.266c-0.132,0.157-0.111,0.391,0.046,0.523c0.07,0.058,0.154,0.087,0.238,0.087
	c0.106,0,0.211-0.045,0.285-0.133c0.637-0.759,1.283-1.51,1.938-2.252c0.136-0.154,0.121-0.388-0.033-0.524
	C219.49,221.277,219.254,221.292,219.118,221.445z M377.307,394.059c0.077,0,0.154-0.024,0.221-0.073
	c0.799-0.593,1.592-1.196,2.375-1.809c0.162-0.126,0.191-0.36,0.064-0.521c-0.127-0.164-0.361-0.191-0.521-0.064
	c-0.779,0.609-1.566,1.208-2.361,1.798c-0.165,0.122-0.2,0.355-0.077,0.519C377.081,394.006,377.194,394.059,377.307,394.059z
	 M324.918,415.82c0.018,0,0.037-0.001,0.055-0.004c0.988-0.147,1.971-0.307,2.951-0.479c0.202-0.036,0.337-0.228,0.302-0.43
	c-0.035-0.203-0.239-0.343-0.43-0.302c-0.974,0.171-1.951,0.329-2.932,0.476c-0.203,0.03-0.343,0.219-0.313,0.422
	C324.578,415.688,324.737,415.82,324.918,415.82z M224.768,215.477c-0.709,0.699-1.41,1.407-2.102,2.124
	c-0.143,0.148-0.138,0.383,0.009,0.525c0.072,0.07,0.165,0.104,0.258,0.104c0.097,0,0.194-0.038,0.267-0.114
	c0.687-0.712,1.384-1.416,2.089-2.111c0.146-0.144,0.148-0.379,0.004-0.525C225.15,215.334,224.914,215.333,224.768,215.477z
	 M355.883,406.308c0.062,0.136,0.197,0.217,0.338,0.217c0.052,0,0.104-0.011,0.155-0.033c0.38-0.174,0.754-0.358,1.132-0.535h-1.593
	C355.849,406.059,355.829,406.189,355.883,406.308z M395.135,377.381c0.07,0.063,0.158,0.094,0.246,0.094
	c0.102,0,0.205-0.042,0.278-0.125c0.456-0.515,0.901-1.039,1.347-1.563v-1.137c-0.625,0.743-1.259,1.479-1.903,2.208
	C394.967,377.01,394.981,377.246,395.135,377.381z M221.224,378.488c-0.139-0.152-0.375-0.161-0.525-0.023
	c-0.151,0.139-0.161,0.374-0.023,0.525c0.674,0.734,1.357,1.46,2.049,2.176c0.073,0.075,0.17,0.113,0.267,0.113
	c0.093,0,0.186-0.035,0.258-0.104c0.147-0.142,0.151-0.377,0.009-0.525C222.572,379.937,221.893,379.217,221.224,378.488z
	 M215.913,372.288c-0.128-0.161-0.362-0.187-0.522-0.059c-0.16,0.128-0.186,0.361-0.059,0.522c0.621,0.779,1.252,1.549,1.893,2.311
	c0.074,0.088,0.179,0.133,0.285,0.133c0.084,0,0.169-0.028,0.239-0.087c0.157-0.132,0.177-0.366,0.045-0.523
	C217.158,373.827,216.53,373.062,215.913,372.288z M226.952,384.305c-0.149-0.139-0.384-0.134-0.525,0.015s-0.135,0.384,0.014,0.525
	c0.723,0.686,1.455,1.361,2.195,2.028c0.071,0.065,0.16,0.096,0.249,0.096c0.102,0,0.203-0.041,0.276-0.123
	c0.137-0.152,0.125-0.387-0.027-0.525C228.398,385.659,227.671,384.986,226.952,384.305z M233.072,389.715
	c-0.158-0.131-0.393-0.107-0.523,0.05c-0.131,0.158-0.108,0.392,0.05,0.523c0.769,0.634,1.546,1.259,2.332,1.872
	c0.068,0.054,0.149,0.079,0.229,0.079c0.111,0,0.22-0.049,0.293-0.143c0.126-0.161,0.098-0.395-0.064-0.521
	C234.609,390.965,233.836,390.345,233.072,389.715z M344.102,410.902c-0.064-0.195-0.273-0.301-0.468-0.239
	c-0.94,0.306-1.886,0.6-2.837,0.882c-0.197,0.059-0.308,0.265-0.25,0.462c0.048,0.161,0.196,0.266,0.356,0.266
	c0.035,0,0.07-0.005,0.106-0.015c0.957-0.284,1.908-0.58,2.854-0.888C344.058,411.306,344.165,411.097,344.102,410.902z
	 M211.049,365.738c-0.117-0.169-0.349-0.211-0.517-0.095c-0.169,0.117-0.211,0.348-0.095,0.517c0.566,0.82,1.141,1.632,1.727,2.435
	c0.073,0.1,0.186,0.153,0.301,0.153c0.076,0,0.152-0.023,0.218-0.071c0.166-0.121,0.202-0.353,0.082-0.519
	C212.183,367.359,211.611,366.553,211.049,365.738z M410.758,354.324c-0.467,0.876-0.945,1.745-1.434,2.608
	c-0.101,0.178-0.038,0.405,0.141,0.506c0.058,0.033,0.12,0.048,0.183,0.048c0.129,0,0.255-0.067,0.324-0.189
	c0.491-0.868,0.972-1.743,1.442-2.624c0.096-0.181,0.028-0.406-0.153-0.503C411.08,354.076,410.855,354.143,410.758,354.324z
	 M203.783,354.893c0.059,0,0.119-0.014,0.174-0.044c0.181-0.096,0.25-0.321,0.153-0.503c-0.059-0.11-0.113-0.222-0.172-0.332h-0.823
	c0.002,0.012,0.004,0.026,0.006,0.038c0.112,0.214,0.219,0.431,0.333,0.644C203.521,354.822,203.65,354.893,203.783,354.893z
	 M206.653,358.869c-0.104-0.176-0.332-0.234-0.509-0.131c-0.176,0.105-0.235,0.333-0.13,0.509c0.507,0.857,1.025,1.706,1.552,2.548
	c0.071,0.112,0.192,0.174,0.315,0.174c0.067,0,0.136-0.018,0.197-0.057c0.174-0.109,0.226-0.338,0.118-0.512
	C207.671,360.565,207.157,359.72,206.653,358.869z M271.092,411.401c0.038,0.012,0.077,0.018,0.115,0.018
	c0.157,0,0.303-0.1,0.353-0.257c0.063-0.195-0.044-0.405-0.239-0.468c-0.946-0.307-1.887-0.625-2.823-0.955
	c-0.194-0.07-0.406,0.033-0.474,0.226c-0.068,0.194,0.033,0.406,0.227,0.474C269.192,410.772,270.14,411.093,271.092,411.401z
	 M209.122,234.492c-0.55,0.833-1.09,1.672-1.619,2.518c-0.109,0.174-0.056,0.403,0.118,0.512c0.061,0.038,0.129,0.057,0.197,0.057
	c0.124,0,0.245-0.062,0.315-0.174c0.526-0.841,1.062-1.675,1.609-2.502c0.113-0.171,0.066-0.402-0.105-0.515
	C209.466,234.273,209.235,234.321,209.122,234.492z M192.602,324.244c0.025,0,0.052-0.003,0.078-0.008
	c0.201-0.043,0.329-0.24,0.286-0.44c-0.206-0.967-0.399-1.938-0.58-2.914c-0.037-0.202-0.231-0.334-0.433-0.297
	c-0.202,0.037-0.335,0.231-0.297,0.433c0.183,0.981,0.378,1.958,0.584,2.931C192.276,324.124,192.431,324.244,192.602,324.244z
	 M193.29,271.796c-0.199-0.049-0.4,0.076-0.447,0.276c-0.23,0.968-0.447,1.94-0.653,2.917c-0.042,0.201,0.086,0.398,0.287,0.44
	c0.026,0.005,0.052,0.008,0.077,0.008c0.172,0,0.326-0.12,0.363-0.295c0.204-0.971,0.42-1.937,0.649-2.899
	C193.613,272.043,193.489,271.843,193.29,271.796z M263.625,407.897c-0.922-0.372-1.838-0.756-2.748-1.151
	c-0.187-0.082-0.406,0.005-0.489,0.193c-0.081,0.189,0.005,0.407,0.193,0.489c0.916,0.397,1.837,0.783,2.764,1.158
	c0.046,0.018,0.093,0.027,0.139,0.027c0.147,0,0.286-0.088,0.344-0.232C263.907,408.191,263.815,407.974,263.625,407.897z
	 M300.038,416.515c-0.012,0.205,0.144,0.381,0.349,0.393c0.4,0.023,0.803,0.036,1.204,0.056l-0.261-0.756
	c-0.3-0.015-0.601-0.024-0.9-0.042C300.231,416.148,300.05,416.311,300.038,416.515z M256.15,404.568
	c-0.893-0.436-1.779-0.883-2.658-1.341c-0.183-0.095-0.407-0.025-0.501,0.158c-0.095,0.181-0.024,0.406,0.158,0.501
	c0.885,0.461,1.777,0.91,2.675,1.349c0.053,0.025,0.108,0.038,0.163,0.038c0.138,0,0.27-0.077,0.334-0.208
	C256.41,404.881,256.334,404.658,256.15,404.568z M194.228,331.922c0.047,0.163,0.195,0.269,0.357,0.269
	c0.034,0,0.069-0.004,0.103-0.015c0.197-0.057,0.311-0.263,0.254-0.459c-0.273-0.95-0.534-1.906-0.784-2.866
	c-0.052-0.199-0.254-0.316-0.453-0.266c-0.198,0.052-0.317,0.255-0.266,0.453C193.691,330.005,193.953,330.966,194.228,331.922z
	 M191.181,316.177c0.017,0,0.034-0.001,0.052-0.004c0.203-0.028,0.345-0.216,0.316-0.419c-0.137-0.978-0.262-1.96-0.375-2.947
	c-0.023-0.203-0.208-0.352-0.411-0.326c-0.204,0.023-0.35,0.208-0.326,0.411c0.114,0.992,0.24,1.98,0.378,2.965
	C190.84,316.042,190.999,316.177,191.181,316.177z M195.484,263.903c-0.197-0.062-0.404,0.047-0.465,0.243
	c-0.297,0.95-0.583,1.905-0.856,2.864c-0.056,0.197,0.058,0.403,0.255,0.459c0.034,0.009,0.069,0.014,0.102,0.014
	c0.161,0,0.31-0.106,0.357-0.27c0.272-0.954,0.555-1.902,0.851-2.846C195.789,264.173,195.68,263.965,195.484,263.903z
	 M191.654,279.823c-0.205-0.038-0.394,0.104-0.427,0.306c-0.161,0.982-0.31,1.966-0.447,2.956c-0.028,0.203,0.114,0.391,0.317,0.419
	c0.017,0.003,0.034,0.004,0.051,0.004c0.183,0,0.342-0.135,0.367-0.321c0.136-0.983,0.284-1.962,0.444-2.937
	C191.994,280.047,191.857,279.856,191.654,279.823z M198.871,344.11c-0.189,0.079-0.279,0.297-0.2,0.486
	c0.382,0.918,0.775,1.83,1.18,2.736c0.062,0.138,0.197,0.22,0.34,0.22c0.05,0,0.102-0.01,0.151-0.032
	c0.187-0.084,0.271-0.304,0.188-0.491c-0.402-0.9-0.793-1.806-1.173-2.718C199.278,344.12,199.06,344.034,198.871,344.11z
	 M201.526,248.64c-0.186-0.087-0.407-0.009-0.495,0.176c-0.428,0.901-0.846,1.809-1.253,2.722c-0.083,0.187,0.001,0.407,0.189,0.49
	c0.049,0.022,0.1,0.032,0.151,0.032c0.143,0,0.278-0.082,0.34-0.221c0.404-0.908,0.819-1.809,1.245-2.705
	C201.79,248.95,201.712,248.728,201.526,248.64z M204.827,241.51c-0.491,0.869-0.971,1.744-1.44,2.626
	c-0.096,0.181-0.028,0.406,0.153,0.502c0.055,0.03,0.115,0.044,0.174,0.044c0.133,0,0.262-0.071,0.328-0.197
	c0.466-0.877,0.943-1.746,1.431-2.609c0.101-0.179,0.038-0.405-0.14-0.506C205.155,241.27,204.928,241.332,204.827,241.51z
	 M198.237,256.163c-0.191-0.074-0.406,0.019-0.481,0.21c-0.365,0.929-0.718,1.865-1.059,2.805c-0.07,0.193,0.03,0.406,0.223,0.476
	c0.042,0.015,0.085,0.022,0.127,0.022c0.152,0,0.294-0.094,0.349-0.245c0.339-0.934,0.69-1.864,1.052-2.787
	C198.522,256.453,198.428,256.238,198.237,256.163z M190.327,308.03c0.009,0,0.017,0,0.026-0.001
	c0.205-0.015,0.359-0.192,0.345-0.396c-0.069-0.985-0.125-1.974-0.17-2.966c-0.009-0.205-0.186-0.372-0.388-0.354
	c-0.205,0.009-0.363,0.183-0.354,0.388c0.045,0.998,0.102,1.993,0.171,2.984C189.97,307.88,190.133,308.03,190.327,308.03z
	 M196.018,336.445c-0.194,0.065-0.299,0.276-0.234,0.47c0.318,0.946,0.648,1.887,0.989,2.821c0.055,0.15,0.197,0.244,0.349,0.244
	c0.042,0,0.085-0.007,0.127-0.022c0.193-0.07,0.292-0.284,0.222-0.477c-0.339-0.929-0.667-1.862-0.983-2.803
	C196.423,336.484,196.213,336.38,196.018,336.445z M190.311,291.655c0.194,0,0.357-0.15,0.37-0.346
	c0.067-0.99,0.147-1.977,0.239-2.961c0.019-0.204-0.131-0.385-0.336-0.404c-0.202-0.019-0.385,0.131-0.404,0.336
	c-0.092,0.99-0.172,1.983-0.24,2.98c-0.014,0.205,0.141,0.382,0.346,0.396C190.294,291.655,190.303,291.655,190.311,291.655z
	 M189.701,296.482c-0.023,0.954-0.034,1.911-0.034,2.871v0.117c0,0.205,0.166,0.371,0.371,0.371s0.371-0.166,0.371-0.371v-0.117
	c0-0.954,0.012-1.905,0.034-2.853c0.005-0.205-0.157-0.375-0.362-0.38C189.873,296.108,189.706,296.277,189.701,296.482z
	 M239.556,394.688c-0.167-0.118-0.398-0.079-0.518,0.087c-0.119,0.167-0.08,0.399,0.087,0.518c0.812,0.578,1.631,1.148,2.458,1.706
	c0.064,0.044,0.136,0.064,0.208,0.064c0.119,0,0.236-0.057,0.308-0.163c0.115-0.171,0.07-0.401-0.1-0.516
	C241.177,395.829,240.363,395.264,239.556,394.688z M286.945,184.121c0.973-0.172,1.95-0.332,2.931-0.479
	c0.203-0.03,0.343-0.22,0.312-0.423c-0.03-0.203-0.216-0.338-0.423-0.312c-0.987,0.149-1.97,0.309-2.95,0.482
	c-0.202,0.036-0.337,0.228-0.301,0.43c0.032,0.18,0.188,0.307,0.365,0.307C286.902,184.127,286.924,184.125,286.945,184.121z
	 M295.032,182.983c0.982-0.103,1.968-0.194,2.958-0.273c0.204-0.016,0.357-0.195,0.341-0.4c-0.017-0.205-0.191-0.356-0.4-0.341
	c-0.996,0.08-1.988,0.172-2.976,0.276c-0.204,0.021-0.352,0.204-0.33,0.408c0.02,0.191,0.181,0.333,0.369,0.333
	C295.006,182.985,295.019,182.984,295.032,182.983z M351.399,190.076c-0.188-0.076-0.407,0.015-0.483,0.206
	c-0.077,0.19,0.015,0.407,0.206,0.484c0.922,0.371,1.838,0.754,2.748,1.148c0.049,0.021,0.099,0.03,0.148,0.03
	c0.144,0,0.28-0.084,0.341-0.224c0.081-0.188-0.005-0.407-0.193-0.489C353.249,190.834,352.327,190.449,351.399,190.076z
	 M358.927,193.419c-0.182-0.089-0.406-0.013-0.496,0.172c-0.09,0.184-0.013,0.407,0.171,0.497c0.893,0.435,1.78,0.881,2.66,1.337
	c0.055,0.028,0.113,0.042,0.171,0.042c0.134,0,0.263-0.073,0.329-0.2c0.095-0.182,0.024-0.406-0.158-0.501
	C360.718,194.306,359.826,193.857,358.927,193.419z M335.747,185.019c-0.204-0.049-0.401,0.073-0.45,0.272s0.073,0.4,0.271,0.449
	c0.963,0.238,1.921,0.487,2.874,0.749c0.033,0.009,0.066,0.013,0.099,0.013c0.163,0,0.313-0.108,0.358-0.273
	c0.054-0.198-0.062-0.402-0.26-0.457C337.68,185.509,336.716,185.258,335.747,185.019z M366.197,197.281
	c-0.177-0.102-0.405-0.041-0.507,0.136c-0.103,0.178-0.042,0.405,0.136,0.507c0.859,0.496,1.712,1.002,2.557,1.52
	c0.06,0.037,0.127,0.054,0.194,0.054c0.125,0,0.247-0.063,0.317-0.178c0.107-0.175,0.052-0.403-0.123-0.511
	C367.919,198.29,367.062,197.78,366.197,197.281z M327.704,183.331c-0.197-0.036-0.394,0.1-0.429,0.302
	c-0.036,0.202,0.1,0.394,0.303,0.43c0.977,0.169,1.951,0.352,2.92,0.545c0.024,0.005,0.049,0.007,0.073,0.007
	c0.173,0,0.328-0.122,0.363-0.299c0.041-0.201-0.09-0.397-0.292-0.437C329.668,183.684,328.689,183.502,327.704,183.331z
	 M402.081,368.173c-0.583,0.801-1.177,1.595-1.78,2.38c-0.125,0.163-0.094,0.396,0.068,0.521c0.067,0.052,0.147,0.077,0.226,0.077
	c0.111,0,0.221-0.05,0.294-0.145c0.607-0.792,1.204-1.59,1.792-2.396c0.12-0.165,0.084-0.398-0.082-0.519
	C402.434,367.97,402.201,368.007,402.081,368.173z M278.869,185.833c0.03,0,0.06-0.004,0.09-0.011
	c0.959-0.239,1.922-0.467,2.891-0.683c0.2-0.045,0.326-0.243,0.281-0.443c-0.045-0.2-0.242-0.326-0.443-0.281
	c-0.974,0.217-1.944,0.446-2.909,0.688c-0.199,0.05-0.32,0.251-0.27,0.45C278.551,185.72,278.703,185.833,278.869,185.833z
	 M319.564,182.209c-0.2-0.015-0.386,0.127-0.407,0.332c-0.021,0.204,0.127,0.386,0.332,0.407c0.987,0.101,1.97,0.214,2.951,0.34
	c0.016,0.002,0.032,0.003,0.048,0.003c0.184,0,0.344-0.137,0.368-0.324c0.026-0.203-0.118-0.39-0.321-0.416
	C321.547,182.425,320.558,182.311,319.564,182.209z M343.652,187.268c-0.194-0.062-0.404,0.044-0.467,0.239
	c-0.063,0.195,0.044,0.405,0.239,0.468c0.946,0.306,1.888,0.624,2.824,0.953c0.041,0.015,0.083,0.021,0.123,0.021
	c0.153,0,0.297-0.095,0.35-0.248c0.068-0.193-0.033-0.406-0.227-0.473C345.553,187.895,344.605,187.576,343.652,187.268z
	 M402.104,229.935c-0.165,0.121-0.202,0.353-0.081,0.519c0.583,0.798,1.156,1.604,1.719,2.418c0.072,0.104,0.188,0.16,0.305,0.16
	c0.073,0,0.147-0.021,0.211-0.066c0.169-0.116,0.211-0.348,0.094-0.517c-0.566-0.819-1.143-1.63-1.729-2.434
	C402.502,229.851,402.269,229.814,402.104,229.935z M406.66,361.401c-0.527,0.841-1.064,1.674-1.611,2.5
	c-0.113,0.171-0.066,0.402,0.104,0.515c0.063,0.041,0.134,0.062,0.205,0.062c0.12,0,0.238-0.059,0.31-0.166
	c0.551-0.832,1.092-1.671,1.621-2.516c0.109-0.174,0.056-0.403-0.118-0.512S406.769,361.227,406.66,361.401z M408.463,239.919
	c0.065,0,0.13-0.017,0.189-0.052c0.176-0.105,0.235-0.333,0.13-0.509c-0.508-0.856-1.026-1.705-1.554-2.546
	c-0.11-0.174-0.339-0.225-0.512-0.117c-0.174,0.109-0.226,0.338-0.117,0.512c0.525,0.836,1.04,1.68,1.545,2.531
	C408.213,239.854,408.337,239.919,408.463,239.919z M397.031,223.509c-0.157,0.132-0.177,0.366-0.045,0.523
	c0.638,0.756,1.265,1.521,1.883,2.294c0.073,0.092,0.181,0.14,0.29,0.14c0.081,0,0.163-0.026,0.232-0.081
	c0.16-0.128,0.186-0.362,0.058-0.522c-0.622-0.778-1.254-1.548-1.894-2.309C397.423,223.397,397.188,223.378,397.031,223.509z
	 M391.524,217.448c-0.147,0.143-0.152,0.378-0.009,0.525c0.688,0.711,1.368,1.431,2.039,2.159c0.073,0.079,0.173,0.12,0.273,0.12
	c0.09,0,0.181-0.033,0.252-0.098c0.151-0.139,0.16-0.374,0.021-0.525c-0.675-0.732-1.358-1.457-2.051-2.172
	C391.907,217.31,391.672,217.306,391.524,217.448z M372.66,201.741c-0.115,0.17-0.07,0.401,0.101,0.515
	c0.822,0.554,1.637,1.119,2.444,1.693c0.065,0.046,0.141,0.069,0.215,0.069c0.116,0,0.23-0.054,0.303-0.156
	c0.119-0.167,0.08-0.399-0.087-0.518c-0.813-0.578-1.632-1.146-2.46-1.704C373.006,201.527,372.776,201.57,372.66,201.741z
	 M379.309,206.537c-0.126,0.162-0.097,0.395,0.065,0.521c0.781,0.61,1.554,1.229,2.319,1.858c0.069,0.057,0.152,0.085,0.236,0.085
	c0.107,0,0.213-0.046,0.287-0.136c0.13-0.159,0.107-0.393-0.052-0.523c-0.77-0.633-1.548-1.256-2.334-1.87
	C379.669,206.347,379.436,206.374,379.309,206.537z M385.607,211.781c-0.137,0.153-0.125,0.387,0.028,0.525
	c0.736,0.662,1.464,1.334,2.184,2.014c0.072,0.068,0.164,0.102,0.255,0.102c0.099,0,0.197-0.039,0.27-0.116
	c0.141-0.149,0.134-0.384-0.015-0.525c-0.724-0.684-1.457-1.36-2.198-2.026C385.982,211.617,385.744,211.629,385.607,211.781z
	 M311.366,181.656c-0.004,0-0.009,0-0.012,0c-0.2,0-0.365,0.159-0.371,0.359c-0.007,0.205,0.155,0.377,0.359,0.383
	c0.992,0.033,1.982,0.078,2.967,0.135c0.007,0,0.014,0.001,0.022,0.001c0.196,0,0.359-0.152,0.371-0.35
	c0.012-0.205-0.144-0.381-0.349-0.392C313.36,181.734,312.365,181.689,311.366,181.656z M237.232,204.79
	c-0.799,0.594-1.591,1.199-2.373,1.812c-0.162,0.127-0.19,0.36-0.063,0.521c0.073,0.094,0.182,0.143,0.293,0.143
	c0.08,0,0.161-0.026,0.229-0.079c0.778-0.61,1.564-1.21,2.359-1.8c0.165-0.122,0.199-0.355,0.077-0.52
	C237.63,204.702,237.397,204.667,237.232,204.79z M230.816,209.917c-0.756,0.648-1.503,1.305-2.243,1.973
	c-0.152,0.137-0.164,0.372-0.027,0.525c0.073,0.081,0.174,0.123,0.276,0.123c0.089,0,0.178-0.032,0.249-0.096
	c0.735-0.663,1.478-1.316,2.229-1.96c0.156-0.133,0.173-0.368,0.04-0.524C231.207,209.802,230.973,209.784,230.816,209.917z
	 M243.986,200.124c-0.838,0.536-1.669,1.084-2.492,1.641c-0.17,0.115-0.214,0.346-0.099,0.516c0.072,0.106,0.189,0.163,0.308,0.163
	c0.071,0,0.144-0.021,0.208-0.064c0.818-0.554,1.644-1.098,2.476-1.631c0.173-0.111,0.223-0.34,0.112-0.513
	C244.389,200.064,244.158,200.012,243.986,200.124z M306.512,181.966c-0.002-0.205-0.16-0.337-0.375-0.367
	c-0.999,0.011-1.993,0.034-2.985,0.07c-0.205,0.007-0.366,0.179-0.358,0.384c0.007,0.201,0.172,0.358,0.371,0.358
	c0.005,0,0.009,0,0.013,0c0.986-0.035,1.975-0.058,2.967-0.069C306.35,182.339,306.514,182.171,306.512,181.966z M248.929,400.723
	c-0.859-0.497-1.711-1.005-2.557-1.523c-0.175-0.107-0.404-0.052-0.511,0.123s-0.052,0.403,0.123,0.511
	c0.851,0.521,1.708,1.032,2.573,1.531c0.059,0.034,0.123,0.05,0.186,0.05c0.128,0,0.253-0.067,0.322-0.186
	C249.168,401.053,249.107,400.825,248.929,400.723z M332.496,308.455c0.959-17.255,10.199-32.662,23.294-44.479
	c-1.114-0.111-2.252-0.061-3.382,0.071c-0.347-0.978-0.709-1.982-0.996-2.848c-0.146,0.129-0.299,0.25-0.447,0.376
	c-2.795,2.375-6.001,4.292-9.413,5.634c-0.329,2.515-0.657,5.031-0.986,7.546l-1.324,0.14l-0.473-7.027l0,0l-1.824,0.861
	l0.508,1.363c-2.01,1.229-3.993,2.565-5.846,3.928C328.071,285.106,329.338,297.401,332.496,308.455z M280.764,191.76
	c-5.99,0-11.144,3.621-13.406,8.786l-9.499-3.391l-0.673,1.884l9.504,3.393c-0.356,1.262-0.56,2.587-0.56,3.962
	c0,8.069,6.564,14.633,14.633,14.633s14.633-6.565,14.633-14.633C295.397,198.325,288.832,191.76,280.764,191.76z M280.764,217.946
	c-6.37,0-11.552-5.182-11.552-11.552c0-1.011,0.144-1.987,0.389-2.923l3.588,1.281c-0.115,0.53-0.179,1.078-0.179,1.642
	c0,4.276,3.479,7.754,7.754,7.754s7.755-3.479,7.755-7.754s-3.479-7.754-7.755-7.754c-3.006,0-5.612,1.723-6.898,4.23l-3.593-1.283
	c1.828-3.974,5.838-6.745,10.491-6.745c6.37,0,11.552,5.182,11.552,11.552S287.133,217.946,280.764,217.946z M279.015,206.832
	c0.197,0.786,0.902,1.37,1.749,1.37c0.999,0,1.808-0.81,1.808-1.808c0-0.999-0.81-1.808-1.808-1.808
	c-0.405,0-0.775,0.138-1.076,0.362l-2.874-1.026c0.827-1.317,2.283-2.201,3.95-2.201c2.577,0,4.673,2.096,4.673,4.673
	c0,2.577-2.096,4.673-4.673,4.673s-4.673-2.096-4.673-4.673c0-0.2,0.035-0.391,0.059-0.585L279.015,206.832z"></path>
<path id="color_x5F_1" fill="#b8e986" d="M425.261,498.368c-4.695-8.96-9.37-17.928-14.347-26.731
	c-0.431,2.416-0.596,4.859-0.534,7.295c1.939,3.903,4.312,7.627,6.173,11.549c1.353,2.85,2.645,5.728,3.916,8.616h5.178
	C425.518,498.854,425.388,498.612,425.261,498.368z M426.705,446.724c-1.402,1.06-2.738,2.206-4.001,3.426
	c0.948,2.887,1.902,5.772,2.938,8.63c0.612,1.688-2.076,2.409-2.682,0.739c-0.852-2.35-1.646-4.721-2.43-7.094
	c-0.476,0.532-0.949,1.067-1.398,1.621c5.567,14.804,10.231,29.919,14.846,45.052h1.015
	C431.128,481.859,428.532,464.341,426.705,446.724z M417.172,456.666c-1.091,1.583-2.067,3.241-2.921,4.959
	c1.948,3.677,3.887,7.359,5.672,11.117c0.765,1.61-1.634,3.019-2.401,1.404c-1.491-3.139-3.085-6.225-4.699-9.3
	c-0.361,0.931-0.687,1.877-0.972,2.836c5.843,10.167,11.241,20.578,16.691,30.962c0.08,0.152,0.162,0.303,0.242,0.454h2.315
	C426.76,484.847,422.359,470.621,417.172,456.666z M451.919,438.184c-0.19-0.003-0.379-0.014-0.568-0.015
	c-3.305-0.007-6.581,0.44-9.758,1.274c-0.801,10.971-1.239,21.948-0.212,32.954c0.166,1.784-2.616,1.767-2.781,0
	c-1-10.719-0.612-21.411,0.149-32.096c-3.314,1.134-6.49,2.69-9.439,4.603c1.846,18.232,4.494,36.363,8.521,54.193h6.46
	C443.802,478.744,447.993,458.441,451.919,438.184z M472.369,484.791c3.068-7.977,6.122-16.009,9.876-23.694
	c0.897-1.836,1.821-3.673,2.729-5.521c-0.427-0.562-0.867-1.113-1.321-1.654c-1.254,2.348-2.486,4.708-3.678,7.091
	c-4.099,8.192-7.82,16.552-11.542,24.919c-1.874,4.212-4.01,8.63-6.044,13.167h4.668
	C468.783,494.313,470.543,489.54,472.369,484.791z M464.693,459.549c2.006-5.397,4.147-10.739,6.412-16.026
	c-2.228-1.249-4.565-2.29-6.97-3.125c-2.804,8.309-5.269,16.716-6.767,25.395c-0.304,1.763-2.984,1.011-2.682-0.739
	c1.503-8.709,3.98-17.145,6.795-25.482c-2.237-0.611-4.523-1.039-6.839-1.247c-3.944,20.206-8.148,40.486-7.61,60.772h5.312
	C455.255,485.573,459.949,472.312,464.693,459.549z M465.54,485.625c4.159-9.288,8.264-18.587,12.865-27.669
	c1.061-2.095,2.166-4.164,3.284-6.226c-0.618-0.646-1.256-1.272-1.911-1.88c-2.011,3.245-4.025,6.488-6.163,9.652
	c-0.998,1.476-3.406,0.083-2.401-1.404c2.235-3.308,4.337-6.7,6.439-10.093c-1.329-1.087-2.717-2.102-4.158-3.032
	c-2.159,5.054-4.203,10.158-6.12,15.316c-4.652,12.516-9.285,25.536-12.189,38.809h4.201
	C461.435,494.459,463.608,489.939,465.54,485.625z M493.404,480.851c0.048-3.29-0.283-6.586-1.039-9.813
	c-0.035-0.148-0.078-0.293-0.114-0.441c-3.978,4.538-7.426,9.414-9.432,15.069c-0.595,1.678-3.281,0.951-2.682-0.739
	c2.351-6.626,6.516-12.197,11.226-17.392c-1.113-3.305-2.662-6.45-4.566-9.37c-4.113,8.371-7.69,16.892-11.062,25.591
	c-1.973,5.091-3.869,10.21-5.726,15.343h8.152C482.888,492.752,488.163,486.732,493.404,480.851z M148.205,361.131
	c-7.757-19.521-12.026-40.793-12.026-63.044c0-32.603,9.162-63.106,25.041-89.074c-0.177-0.098-0.346-0.204-0.509-0.316
	c-16.307,26.655-25.032,57.35-25.032,89.39c0,21.999,4.119,43.363,11.973,63.223C147.83,361.243,148.015,361.184,148.205,361.131z
	 M307.428,126.839c67.001,0,125.127,38.683,153.247,94.883c0.18-0.088,0.369-0.166,0.563-0.238
	c-8.179-16.383-19.039-31.515-32.364-44.841c-32.439-32.439-75.569-50.304-121.445-50.304s-89.006,17.865-121.445,50.304
	c-6.394,6.394-12.213,13.21-17.45,20.374c0.166,0.116,0.324,0.239,0.475,0.368C200.177,154.659,250.611,126.839,307.428,126.839z
	 M249.133,459.094c-16.627-6.04-32.063-14.579-45.846-25.172v0.764c14.011,10.726,29.449,19.143,45.846,25.042V459.094z
	 M153.882,373.854c-0.169,0.106-0.347,0.202-0.53,0.293c8.209,16.592,19.158,31.913,32.631,45.385
	c4.746,4.746,9.726,9.172,14.905,13.283v-0.778C181.261,416.392,165.125,396.545,153.882,373.854z M268.84,464.923
	c-5.89-1.362-11.667-3.022-17.309-4.976v0.617c5.537,1.899,11.179,3.512,16.908,4.836L268.84,464.923z M307.428,469.337
	c-2.188,0-4.366-0.043-6.534-0.125c-0.002,0.164-0.008,0.327-0.02,0.49c2.178,0.081,4.362,0.135,6.554,0.135
	c4.105,0,8.187-0.149,12.243-0.433l-0.172-0.498C315.51,469.184,311.487,469.337,307.428,469.337z M347.509,465.149
	c17.498-4.164,34.167-11.054,49.497-20.46v-0.709c-15.112,9.313-31.771,16.341-49.497,20.608V465.149z M327.831,468.637
	c1.434-0.169,2.864-0.354,4.29-0.558v-0.529c-1.445,0.21-2.896,0.401-4.353,0.574L327.831,468.637z M428.873,419.532
	c32.438-32.438,50.304-75.569,50.304-121.445c0-22.209-4.199-43.77-12.2-63.791c-0.172,0.087-0.35,0.167-0.534,0.24
	c7.885,19.66,12.233,41.106,12.233,63.551c0,60.601-31.643,113.948-79.273,144.394v0.719
	C409.943,436.491,419.825,428.58,428.873,419.532z M345.111,465.15c-2.323,0.524-4.661,1.004-7.018,1.432v0.532
	c2.352-0.422,4.693-0.884,7.018-1.402V465.15z M328.317,328.083c-0.383,3.542-0.485,7.271,0.112,10.853
	c-3.1,0.088-6.305,0.142-9.668,0.239c-0.643,3.482-1.363,7.002-2.156,10.553h26.518h20.163c-0.724-2.638-1.477-5.048-2.206-7.266
	c-2.434-7.4-4.591-12.702-4.393-17.466c0.63-2.965,1.29-5.805,1.961-8.594c1.438-4.81,2.957-8.75,4.483-14.449
	c0.068-0.254,0.136-0.501,0.204-0.763c2.189-8.408,5.116-18.522,2.672-26.859c-1.182-4.034-3.488-8.11-7.385-9.687
	c-0.911-0.369-1.864-0.571-2.834-0.668c-13.095,11.817-22.335,27.224-23.294,44.479c-3.158-11.054-4.425-23.349-0.89-34.436
	c-3.046,2.24-5.746,4.547-7.625,6.559c-14.978,16.037,0.08,21.652-1.831,36.57c-0.212,1.655-0.436,3.324-0.667,4.999
	c-3.159,1.123-6.703,2.523-10.333,3.985c0.019,2.083,0.148,4.218,0.448,6.33C316.57,331.337,322.543,329.655,328.317,328.083z
	 M329.479,471.237l0.804,8.599l0,0l-8.667,8.263l-4.755-0.113l-0.519,1.564l-1.989,5.994l-3.799,4.3l10.117-2.322l5.597-7.972
	l3.939-5.61l1.865,5.61l1.654,4.976l1.628-0.374l-1.664-17.028l-0.01,0.017c-0.078-1.221-0.6-2.427-1.559-3.364
	c-0.011-0.011-0.018-0.023-0.029-0.034L329.479,471.237z M275.805,475.827l-2.119,10.953l1.602,0.472l6.893-15.659l-0.018,0.01
	c0.513-1.068,0.648-2.327,0.314-3.573c1.639,0.237,3.281,0.459,4.931,0.65c0.009-0.17,0.024-0.339,0.044-0.507
	c-1.716-0.2-3.422-0.431-5.122-0.682l-0.936-3.092l0,0l-2.43,5.46l-1.082,2.43l-11.604,2.957l-4.09-2.429l-5.89,5.36l-4.768,1.66
	l-0.651,0.227l0.651,0.192l9.306,2.741L275.805,475.827z M315.611,354.015c-0.808,3.356-1.675,6.734-2.652,10.146
	c0.729,0.311,1.497,0.586,2.268,0.857c8.134,2.862,18.437,3.539,28.329,2.38c0.521-0.061,1.037-0.139,1.556-0.21v-10.976
	c0-0.805,0.065-1.55,0.17-2.196h-2.158L315.611,354.015L315.611,354.015z M357.698,364.339l0.723-10.324h-11.082
	c0.106,0.646,0.17,1.391,0.17,2.196v10.616C351.054,366.227,354.487,365.392,357.698,364.339z M362.011,362.727
	c0.859-0.362,1.688-0.744,2.495-1.141c0.423-0.208,0.864-0.404,1.271-0.621c-0.416-2.472-0.891-4.781-1.399-6.95h-5.416
	L362.011,362.727z"></path>
</svg>